<svg width="38" height="38" viewBox="0 0 38 38" fill="none" xmlns="http://www.w3.org/2000/svg">
<g clip-path="url(#clip0_2603_1700)">
<path d="M18.9994 29.9679C18.078 29.9679 17.1459 29.9893 16.2244 29.9679C14.628 29.9357 13.0423 29.9036 11.4458 29.8071C10.203 29.7321 8.94942 29.625 7.71728 29.4429C6.03514 29.1964 4.88871 28.0393 4.53514 26.3571C4.31014 25.2536 4.20299 24.1393 4.12799 23.025C4.01014 21.4393 3.96728 19.8429 4.02085 18.2571C4.07442 16.3714 4.16014 14.475 4.54585 12.6214C4.89942 10.8643 6.13156 9.69643 7.91014 9.48214C9.19585 9.33214 10.4923 9.225 11.778 9.15C13.1601 9.075 14.5423 9.03214 15.9244 9.02143C17.8959 9 19.8673 9 21.828 9C23.1673 9 24.5066 9.05357 25.8351 9.11786C27.078 9.18214 28.3101 9.27857 29.553 9.39643C30.303 9.46071 31.0423 9.6 31.6959 10.0071C32.7458 10.65 33.303 11.6036 33.5173 12.7929C33.7423 14.0357 33.8708 15.2893 33.9137 16.5536C33.9566 17.925 34.0101 19.3071 33.9887 20.6893C33.9566 22.5214 33.8494 24.3536 33.5173 26.175C33.2601 27.5679 32.553 28.6071 31.2458 29.1964C30.6994 29.4429 30.1208 29.5286 29.5316 29.5821C28.053 29.7 26.5744 29.7964 25.0851 29.8714C24.0887 29.925 23.0923 29.9464 22.0851 29.9571C21.0566 29.9679 20.0173 29.9571 18.9887 29.9571C18.9887 29.9571 18.9887 29.9679 18.9887 29.9786L18.9994 29.9679ZM15.9994 24.0107C18.6244 22.5 21.2173 21 23.8423 19.4786C21.2066 17.9571 18.6137 16.4571 15.9994 14.9464V24.0107Z" fill="#ED3023"/>
<path d="M16 24.0106V14.957C18.6143 16.4677 21.2071 17.9677 23.8429 19.4892C21.2071 21.0106 18.6143 22.5106 16 24.0213V24.0106Z" fill="white"/>
</g>
<defs>
<clipPath id="clip0_2603_1700">
<rect width="30" height="20.9786" fill="white" transform="translate(4 9)"/>
</clipPath>
</defs>
</svg>
