<svg width="38" height="38" viewBox="0 0 38 38" fill="none" xmlns="http://www.w3.org/2000/svg">
<path d="M19 33C26.732 33 33 26.732 33 19C33 11.268 26.732 5 19 5C11.268 5 5 11.268 5 19C5 26.732 11.268 33 19 33Z" fill="#2083FE"/>
<path d="M7.25423 32.58L12.5042 30.26L7.51423 25L5.13423 30.42C4.87423 31.02 4.99423 31.74 5.47423 32.22C5.95423 32.7 6.65423 32.82 7.24423 32.58H7.25423Z" fill="#2083FE"/>
<path d="M18.9997 27.5702C23.7328 27.5702 27.5697 23.7333 27.5697 19.0002C27.5697 14.2671 23.7328 10.4302 18.9997 10.4302C14.2666 10.4302 10.4297 14.2671 10.4297 19.0002C10.4297 23.7333 14.2666 27.5702 18.9997 27.5702Z" fill="#FFCB47"/>
<path d="M19.5691 14.2925L20.9691 16.2825L23.2891 17.0025C23.7491 17.1425 23.9291 17.7025 23.6391 18.0825L22.1791 20.0325L22.2191 22.4625C22.2191 22.9425 21.7491 23.2925 21.2991 23.1325L18.9991 22.3425L16.6991 23.1325C16.2391 23.2925 15.7691 22.9425 15.7791 22.4625L15.8191 20.0325L14.3591 18.0825C14.0691 17.6925 14.2491 17.1425 14.7091 17.0025L17.0291 16.2825L18.4291 14.2925C18.7091 13.9025 19.2891 13.9025 19.5691 14.2925Z" fill="white"/>
</svg>
