<svg width="70" height="70" viewBox="0 0 70 70" fill="none" xmlns="http://www.w3.org/2000/svg">
<path d="M67.507 45.1602C64.1203 45.1602 60.7336 45.1602 57.347 45.1602C57.347 46.4669 57.347 47.7735 57.3203 49.0535C57.3203 49.6935 57.347 50.3069 57.3736 50.9469C57.3736 52.4402 57.347 53.9069 57.3203 55.4002C57.3203 56.0402 57.347 56.6535 57.3736 57.2935C57.3736 58.6802 57.347 60.0935 57.3203 61.4802C57.3203 62.0669 57.347 62.6535 57.3736 63.2402C57.3736 63.9602 57.347 64.6802 57.3203 65.4002C57.3203 65.9869 57.3203 66.5735 57.3203 67.1602C57.3203 68.6535 58.1203 69.4535 59.587 69.4535C61.9336 69.4535 64.307 69.4002 66.6536 69.4535C67.907 69.4802 68.947 69.2402 69.6136 68.0935V46.6269C69.187 45.7735 68.5736 45.1335 67.507 45.1335V45.1602Z" fill="#CF47E9"/>
<path d="M12.7343 51.5068C12.7343 50.7068 12.7609 49.8801 12.7876 49.0801C12.7876 47.7734 12.7876 46.4668 12.7609 45.1868C9.37427 45.1868 5.96094 45.1868 2.57427 45.1868C1.40094 45.1868 0.52094 46.0134 0.494274 47.1334C0.494274 48.6001 0.494274 50.0668 0.494274 51.5068V64.2001C0.494274 65.2934 0.467607 66.3868 0.494274 67.5068C0.494274 68.6268 1.37427 69.4534 2.49427 69.4801C5.24094 69.4801 8.01427 69.4801 10.7609 69.4801C11.9076 69.4801 12.7343 68.6268 12.7609 67.4534C12.7609 66.7868 12.7609 66.1201 12.7609 65.4268C12.7609 65.0268 12.7343 64.6001 12.7076 64.2001L12.7609 61.5068C12.7609 60.4668 12.7343 59.4268 12.7076 58.4134C12.7076 57.4268 12.7343 56.4401 12.7609 55.4534C12.7609 54.1468 12.7343 52.8401 12.7076 51.5334L12.7343 51.5068Z" fill="#CF47E9"/>
<path d="M39.2144 4.41344C38.8677 4.41344 38.5477 4.41344 38.2011 4.41344C37.0544 4.41344 37.0011 4.41344 37.0811 3.29344C37.1611 1.98677 36.8944 0.946774 35.5877 0.360107H34.4944C33.3477 0.866774 32.8944 1.77344 33.0011 3.00011C33.0277 3.32011 33.0011 3.64011 33.0011 3.93344C33.0011 4.28011 32.8944 4.41344 32.5211 4.38677C31.9611 4.38677 31.4011 4.36011 30.8411 4.38677C30.0144 4.44011 29.4011 4.89344 29.0811 5.66677C28.7611 6.44011 28.9211 7.18677 29.4811 7.80011C30.0144 8.41344 30.7611 8.46677 31.5344 8.44011C32.9477 8.44011 32.9477 8.44011 33.0011 9.77344C33.0011 11.4534 32.9744 13.1334 33.0011 14.8134C33.0011 15.9068 33.9077 16.7601 34.9744 16.7868C36.0677 16.7868 37.0011 15.9334 37.0277 14.8134C37.0277 13.1334 37.0277 11.4534 37.0277 9.77344C37.0277 9.56011 37.0811 9.32011 37.0277 9.10677C36.9744 8.60011 37.1077 8.36011 37.6677 8.41344C38.1477 8.46677 38.6544 8.44011 39.1611 8.41344C40.2544 8.36011 41.0811 7.45344 41.0811 6.36011C41.0811 5.32011 40.2277 4.44011 39.1877 4.36011L39.2144 4.41344Z" fill="#CF47E9"/>
<path d="M48.387 42.8668C48.3337 42.6001 48.307 42.3335 48.2537 42.0668C47.8804 40.3868 47.6404 38.7068 47.187 37.0535C47.187 36.7601 47.187 36.4935 47.107 36.2001C46.707 34.2801 46.3337 32.3601 45.9604 30.4401C45.6404 28.8668 45.347 27.2935 45.027 25.7201C44.6537 23.9601 43.7204 22.6001 42.0937 21.7735C39.8004 20.6001 37.5604 20.7068 35.4004 22.0935C35.1604 22.2535 35.0004 22.3335 34.707 22.1468C33.2404 21.1335 31.6404 20.7868 29.8537 21.1335C27.7737 21.5068 26.2537 22.6001 25.427 24.5468C24.6537 26.4401 24.5204 28.4935 24.067 30.4668C23.907 31.2668 23.747 32.0668 23.587 32.8935C23.347 34.3068 22.9204 35.6668 22.8404 37.0801C22.307 39.0001 22.0404 40.9468 21.6404 42.8935C21.5337 43.4535 21.4004 44.0135 21.3204 44.6001C21.2404 45.0535 21.0537 45.2135 20.5737 45.2135C17.9604 45.2135 15.3204 45.2135 12.707 45.2135V49.1068C12.707 49.9068 12.707 50.7335 12.707 51.5335C12.707 52.8401 12.7337 54.1468 12.7604 55.4535C12.7604 56.4401 12.7337 57.4268 12.707 58.4135C12.707 59.4535 12.7337 60.4935 12.7604 61.5068C12.7604 62.4135 12.7337 63.3201 12.707 64.2001C12.707 64.6001 12.7337 65.0268 12.7604 65.4268C17.8804 65.4268 23.0004 65.3735 28.1204 65.4268C30.6004 65.4535 32.7604 64.7335 34.547 63.0801C35.0004 62.6801 35.187 62.8401 35.507 63.1601C37.027 64.6535 38.867 65.4268 41.0004 65.4268C46.4137 65.4268 51.827 65.4268 57.2404 65.4268C57.2404 64.7068 57.267 63.9868 57.2937 63.2668C57.2937 62.6801 57.267 62.0935 57.2404 61.5068C57.2404 60.1201 57.267 58.7068 57.2937 57.3201C57.2937 56.6801 57.267 56.0668 57.2404 55.4268C57.2404 53.9335 57.267 52.4668 57.2937 50.9735C57.2937 50.3335 57.267 49.7201 57.2404 49.0801C57.2404 47.7735 57.2404 46.4668 57.267 45.1868C54.6804 45.1868 52.067 45.1601 49.4804 45.1868C48.947 45.1868 48.7337 45.0001 48.6537 44.5201C48.5737 43.9601 48.467 43.4268 48.3604 42.8935" fill="#FECDD5"/>
</svg>
