
<svg width="37" height="36" viewBox="0 0 37 36" fill="none" xmlns="http://www.w3.org/2000/svg">
<path d="M31.4481 29.832C31.5201 30.672 31.1721 31.02 30.6801 31.14C30.3921 31.212 30.0801 31.188 29.7801 31.176C29.4921 31.152 29.4201 31.26 29.4321 31.536C29.4561 31.992 29.4441 32.46 29.4321 32.916C29.4321 33.132 29.5041 33.204 29.7201 33.204C30.1161 33.216 30.5241 33.108 30.9081 33.324C31.2801 33.528 31.5321 33.984 31.4481 34.38C31.3641 34.812 30.9441 35.184 30.5121 35.22C30.4281 35.22 30.3561 35.22 30.2721 35.22C23.5161 35.22 16.7481 35.22 9.99206 35.22C9.65606 35.22 9.35606 35.148 9.05606 35.016C8.99606 34.884 8.86406 34.872 8.76806 34.8C7.58006 34.104 6.99206 32.724 7.32806 31.44C7.68806 30.072 8.85206 29.16 10.2681 29.148C16.9521 29.148 23.6481 29.148 30.3321 29.148C30.6681 29.148 30.9321 29.268 31.1721 29.496C31.2801 29.592 31.2921 29.76 31.4481 29.82V29.832Z" fill="#2083FE"/>
<path d="M31.4353 15.84C31.4353 12.876 31.4353 9.92401 31.4353 6.96001C31.4353 5.34001 31.4233 3.70801 31.4473 2.08801C31.4473 1.46401 31.2673 1.02001 30.7033 0.768005H9.58333C9.54733 0.840005 9.47533 0.828005 9.40333 0.840005C7.51933 1.22401 6.22333 2.30401 5.51533 4.08001C5.14333 5.00401 5.19133 5.98801 5.21533 6.96001C5.21533 9.33601 5.21533 11.712 5.21533 14.088C5.21533 16.524 5.21533 18.96 5.21533 21.396C5.21533 22.416 5.21533 23.424 5.21533 24.444C5.21533 26.388 5.20333 28.32 5.21533 30.264C5.21533 32.148 6.36733 34.272 8.94733 35.064C8.99533 35.076 9.03133 35.064 9.05533 35.016C8.99533 34.884 8.86333 34.872 8.76733 34.8C7.57933 34.104 6.99133 32.724 7.32733 31.44C7.68733 30.072 8.85133 29.16 10.2673 29.148C16.9513 29.148 23.6473 29.148 30.3313 29.148C30.6673 29.148 30.9313 29.268 31.1713 29.496C31.2793 29.592 31.2913 29.76 31.4473 29.82C31.4473 28.032 31.4473 26.232 31.4473 24.444C31.4473 21.576 31.4473 18.708 31.4473 15.828L31.4353 15.84ZM14.5033 12.888C15.3193 12.888 16.1353 12.876 16.9513 12.888C17.2393 12.888 17.3353 12.828 17.3233 12.528C17.2993 11.676 17.3233 10.824 17.3233 9.97201C17.3233 9.28801 17.7313 8.832 18.3433 8.844C18.9313 8.844 19.3393 9.3 19.3393 9.96C19.3393 10.836 19.3393 11.712 19.3393 12.576C19.3393 12.804 19.3993 12.888 19.6393 12.876C20.5273 12.864 21.4033 12.876 22.2913 12.876C22.9273 12.876 23.3713 13.284 23.3833 13.872C23.3833 14.46 22.9393 14.88 22.2793 14.88C21.3913 14.88 20.5153 14.88 19.6273 14.88C19.4113 14.88 19.3273 14.94 19.3393 15.168C19.3633 15.396 19.3393 15.612 19.3513 15.84C19.3513 16.02 19.3513 16.2 19.3393 16.368C19.3393 18.252 19.3513 20.136 19.3393 22.02C19.3393 22.548 18.8473 22.98 18.3193 22.968C17.8033 22.968 17.3353 22.536 17.3353 22.02C17.3353 20.136 17.3353 18.252 17.3353 16.368C17.3353 15.972 17.3113 15.588 17.3353 15.192C17.3473 14.928 17.2513 14.88 17.0113 14.88C16.1833 14.892 15.3553 14.88 14.5273 14.88C13.9153 14.892 13.4953 14.664 13.2913 14.076C13.2913 13.248 13.6753 12.876 14.5033 12.876V12.888Z" fill="white"/>
<path d="M22.2793 12.888C21.3913 12.888 20.5153 12.888 19.6273 12.888C19.3873 12.888 19.3273 12.816 19.3273 12.588C19.3393 11.712 19.3273 10.836 19.3273 9.97202C19.3273 9.31202 18.9193 8.85602 18.3313 8.85602C17.7313 8.85602 17.3113 9.30002 17.3113 9.98402C17.3113 10.836 17.2993 11.688 17.3113 12.54C17.3113 12.852 17.2153 12.912 16.9393 12.9C16.1233 12.876 15.3073 12.9 14.4913 12.9C13.6633 12.9 13.2793 13.272 13.2793 14.1C13.4833 14.688 13.8913 14.928 14.5153 14.904C15.3433 14.88 16.1713 14.904 16.9993 14.904C17.2393 14.904 17.3353 14.952 17.3233 15.216C17.2993 15.612 17.3233 15.996 17.3233 16.392C17.3233 18.276 17.3113 20.16 17.3233 22.044C17.3233 22.56 17.8033 22.992 18.3073 22.992C18.8353 22.992 19.3273 22.572 19.3273 22.044C19.3273 20.16 19.3273 18.276 19.3273 16.392C19.3273 16.212 19.3273 16.032 19.3393 15.864C19.3393 15.636 19.3393 15.42 19.3273 15.192C19.3033 14.976 19.3873 14.904 19.6153 14.904C20.5033 14.904 21.3793 14.904 22.2673 14.904C22.9273 14.904 23.3713 14.484 23.3713 13.896C23.3713 13.32 22.9153 12.912 22.2793 12.9V12.888Z" fill="#2083FE"/>
<path d="M31.4353 15.84C31.4353 12.876 31.4353 9.92401 31.4353 6.96001C31.4353 5.34001 31.4233 3.70801 31.4473 2.08801C31.4473 1.46401 31.2673 1.02001 30.7033 0.768005H9.58333C9.54733 0.840005 9.47533 0.828005 9.40333 0.840005C7.51933 1.22401 6.22333 2.30401 5.51533 4.08001C5.14333 5.00401 5.19133 5.98801 5.21533 6.96001C5.21533 9.33601 5.21533 11.712 5.21533 14.088C5.21533 16.524 5.21533 18.96 5.21533 21.396C5.21533 22.416 5.21533 23.424 5.21533 24.444C5.21533 26.388 5.20333 28.32 5.21533 30.264C5.21533 32.148 6.36733 34.272 8.94733 35.064C8.99533 35.076 9.03133 35.064 9.05533 35.016C8.99533 34.884 8.86333 34.872 8.76733 34.8C7.57933 34.104 6.99133 32.724 7.32733 31.44C7.68733 30.072 8.85133 29.16 10.2673 29.148C16.9513 29.148 23.6473 29.148 30.3313 29.148C30.6673 29.148 30.9313 29.268 31.1713 29.496C31.2793 29.592 31.2913 29.76 31.4473 29.82V24.444C31.4473 21.576 31.4473 18.708 31.4473 15.828L31.4353 15.84Z" stroke="#231815" stroke-linejoin="round"/>
</svg>
