
<svg width="30" height="30" viewBox="0 0 30 30" fill="none" xmlns="http://www.w3.org/2000/svg">
<path d="M27.8349 19.0135C26.4976 19.0135 25.1603 19.0135 23.823 19.0135C23.823 19.5294 23.823 20.0454 23.8125 20.5508C23.8125 20.8035 23.823 21.0457 23.8336 21.2985C23.8336 21.8881 23.823 22.4673 23.8125 23.0569C23.8125 23.3097 23.823 23.5519 23.8336 23.8046C23.8336 24.3521 23.823 24.9102 23.8125 25.4578C23.8125 25.6894 23.823 25.9211 23.8336 26.1527C23.8336 26.437 23.823 26.7214 23.8125 27.0057C23.8125 27.2373 23.8125 27.469 23.8125 27.7006C23.8125 28.2903 24.1284 28.6062 24.7075 28.6062C25.6342 28.6062 26.5713 28.5852 27.498 28.6062C27.9929 28.6167 28.4035 28.522 28.6668 28.0692V19.5926C28.4983 19.2556 28.2561 19.0029 27.8349 19.0029V19.0135Z" fill="#2083FE"/>
<path d="M6.20607 21.5196C6.20607 21.2037 6.2166 20.8773 6.22713 20.5614C6.22713 20.0454 6.22713 19.5295 6.2166 19.024C4.8793 19.024 3.53148 19.024 2.19418 19.024C1.73086 19.024 1.38337 19.3504 1.37284 19.7927C1.37284 20.3718 1.37284 20.951 1.37284 21.5196V26.5318C1.37284 26.9636 1.36231 27.3953 1.37284 27.8376C1.37284 28.2798 1.72033 28.6062 2.16259 28.6168C3.24717 28.6168 4.34228 28.6168 5.42686 28.6168C5.87965 28.6168 6.20607 28.2798 6.2166 27.8165C6.2166 27.5532 6.2166 27.29 6.2166 27.0162C6.2166 26.8583 6.20607 26.6898 6.19554 26.5318L6.2166 25.4683C6.2166 25.0577 6.20607 24.647 6.19554 24.2469C6.19554 23.8572 6.20607 23.4676 6.2166 23.078C6.2166 22.5621 6.20607 22.0461 6.19554 21.5301L6.20607 21.5196Z" fill="#2083FE"/>
<path d="M16.6634 2.92379C16.5265 2.92379 16.4002 2.92379 16.2633 2.92379C15.8105 2.92379 15.7894 2.92379 15.821 2.48153C15.8526 1.96557 15.7473 1.5549 15.2314 1.32324H14.7996C14.3468 1.52331 14.1678 1.88133 14.21 2.3657C14.2205 2.49206 14.21 2.61842 14.21 2.73425C14.21 2.87114 14.1678 2.92379 14.0204 2.91326C13.7993 2.91326 13.5782 2.90273 13.357 2.91326C13.0306 2.93432 12.7884 3.11333 12.6621 3.41869C12.5357 3.72406 12.5989 4.0189 12.82 4.26109C13.0306 4.50328 13.3254 4.52434 13.6308 4.51381C14.1889 4.51381 14.1889 4.51381 14.21 5.0403C14.21 5.70369 14.1994 6.36707 14.21 7.03046C14.21 7.46218 14.568 7.79914 14.9892 7.80967C15.4209 7.80967 15.7894 7.47271 15.8 7.03046C15.8 6.36707 15.8 5.70369 15.8 5.0403C15.8 4.95606 15.821 4.86129 15.8 4.77705C15.7789 4.57699 15.8316 4.48222 16.0527 4.50328C16.2422 4.52434 16.4423 4.51381 16.6424 4.50328C17.0741 4.48222 17.4005 4.1242 17.4005 3.69247C17.4005 3.28181 17.0636 2.93432 16.6529 2.90273L16.6634 2.92379Z" fill="#2083FE"/>
<path d="M20.2843 18.1079C20.2633 18.0026 20.2527 17.8973 20.2317 17.792C20.0843 17.1286 19.9895 16.4652 19.8105 15.8124C19.8105 15.6965 19.8105 15.5912 19.7789 15.4754C19.621 14.7173 19.4735 13.9591 19.3261 13.201C19.1998 12.5797 19.0839 11.9584 18.9576 11.3372C18.8101 10.6422 18.4416 10.1052 17.7993 9.77873C16.8937 9.31542 16.0092 9.35754 15.1563 9.90509C15.0615 9.96827 14.9983 9.99986 14.8825 9.92615C14.3033 9.52602 13.6715 9.38913 12.966 9.52602C12.1447 9.67344 11.5445 10.1052 11.2181 10.8738C10.9127 11.6215 10.8601 12.4323 10.6811 13.2115C10.6179 13.5274 10.5547 13.8433 10.4915 14.1697C10.3967 14.7278 10.2283 15.2648 10.1967 15.8229C9.98608 16.5811 9.88078 17.3497 9.72283 18.1184C9.68071 18.3396 9.62806 18.5607 9.59647 18.7923C9.56488 18.9713 9.49118 19.0345 9.30164 19.0345C8.26971 19.0345 7.22724 19.0345 6.19531 19.0345V20.5719C6.19531 20.8878 6.19531 21.2142 6.19531 21.5301C6.19531 22.0461 6.20584 22.562 6.21637 23.078C6.21637 23.4676 6.20584 23.8572 6.19531 24.2468C6.19531 24.6575 6.20584 25.0682 6.21637 25.4683C6.21637 25.8263 6.20584 26.1843 6.19531 26.5318C6.19531 26.6898 6.20584 26.8583 6.21637 27.0162C8.23812 27.0162 10.2599 26.9951 12.2816 27.0162C13.2609 27.0267 14.1138 26.7424 14.8193 26.0896C14.9983 25.9316 15.072 25.9948 15.1984 26.1212C15.7986 26.7108 16.5252 27.0162 17.3675 27.0162C19.5051 27.0162 21.6427 27.0162 23.7803 27.0162C23.7803 26.7319 23.7908 26.4476 23.8013 26.1633C23.8013 25.9316 23.7908 25.7 23.7803 25.4683C23.7803 24.9207 23.7908 24.3627 23.8013 23.8151C23.8013 23.5624 23.7908 23.3202 23.7803 23.0675C23.7803 22.4778 23.7908 21.8987 23.8013 21.309C23.8013 21.0563 23.7908 20.8141 23.7803 20.5614C23.7803 20.0454 23.7803 19.5294 23.7908 19.024C22.7694 19.024 21.7375 19.0135 20.7161 19.024C20.5055 19.024 20.4212 18.9503 20.3896 18.7607C20.358 18.5396 20.3159 18.329 20.2738 18.1184" fill="#EAEBEC"/>
</svg>
