
<svg width="38" height="38" viewBox="0 0 38 38" fill="none" xmlns="http://www.w3.org/2000/svg">
<g clip-path="url(#clip0_2603_1337)">
<path d="M6 18H32V32C32 33.1 31.1 34 30 34H8C6.9 34 6 33.1 6 32V18Z" fill="#FFD759"/>
<path d="M12.5 12H25.5C26.53 12 28.16 12.51 29.21 14L32 18H6L8.79 14C9.65 12.55 11.48 12 12.5 12Z" fill="#FFB347"/>
<path d="M19.0115 7.73469C19.0115 5.67755 17.4483 4 15.5057 4C13.5632 4 12 5.66531 12 7.73469C12 7.83265 12.023 7.93061 12.023 8.01633H12C12 12.1429 19 16 19 16C19 16 26 12.1306 26 8.01633H25.977C25.977 7.91837 26 7.83265 26 7.73469C26 5.67755 24.4368 4 22.4943 4C20.5517 4 18.9885 5.66531 18.9885 7.73469H19.0115Z" fill="#EE1762"/>
</g>
<defs>
<clipPath id="clip0_2603_1337">
<rect width="26" height="30" fill="white" transform="translate(6 4)"/>
</clipPath>
</defs>
</svg>
