
<svg width="24" height="24" viewBox="0 0 24 24" fill="none" xmlns="http://www.w3.org/2000/svg">
<g clip-path="url(#clip0_2622_1739)">
<path d="M8.00605 3.9751C9.00164 3.9751 9.99722 3.9751 11.0008 3.9751C11.0008 4.32034 11.0089 4.65756 11.0169 5.0028C11.0249 5.55679 11.4505 5.99035 11.9884 5.99035C12.5424 5.99035 12.9759 5.56482 12.984 5.0028C12.984 4.65756 12.992 4.32034 13 3.9751C13.9956 3.9751 14.9912 3.9751 15.9948 3.9751C15.9948 4.30428 15.9948 4.63347 16.0028 4.95462C16.0109 5.54876 16.4444 5.99035 17.0145 5.98232C17.5685 5.98232 17.994 5.53271 17.994 4.9466C17.994 4.61741 17.994 4.28823 18.002 3.96707C18.548 3.99116 19.094 3.93495 19.6319 4.06342C20.6837 4.31231 21.4063 4.93857 21.7997 5.93415C21.9362 6.27939 21.9924 6.63267 21.9844 7.01002C21.9844 11.0726 21.9844 15.1433 21.9763 19.2059C21.9763 19.8482 21.7114 20.4183 21.3019 20.9161C20.8282 21.4861 20.2341 21.8314 19.5034 21.9679C19.391 21.992 19.2867 21.992 19.1823 21.992C14.381 21.992 9.57972 21.992 4.77843 21.992C4.15218 21.992 3.59016 21.7431 3.10842 21.3496C2.51428 20.8759 2.15298 20.2577 2.00846 19.503C1.98438 19.3585 1.98438 19.222 1.98438 19.0855C1.98438 15.0309 1.98438 10.9843 1.98438 6.92973C1.98438 5.91006 2.44202 5.12323 3.25294 4.52909C3.79088 4.13568 4.40108 3.99116 5.05142 3.96707C5.35651 3.95904 5.66161 3.96707 5.96671 3.96707C5.96671 4.28823 5.96671 4.60938 5.97474 4.92251C5.97474 5.52468 6.39224 5.9743 6.9623 5.98232C7.54038 5.98232 7.96591 5.54876 7.97394 4.93054C7.97394 4.60938 7.97394 4.28823 7.98197 3.9751H8.00605ZM16.7495 10.5026C16.7576 10.3179 16.7094 10.1413 16.605 9.97269C16.2517 9.40264 15.497 9.33841 14.9912 9.84423C13.6423 11.1931 12.2935 12.5419 10.9446 13.8908C10.7921 14.0433 10.7118 14.0674 10.5512 13.8988C10.0213 13.3448 9.48337 12.7989 8.92135 12.277C8.49582 11.8755 7.90168 11.9077 7.51629 12.3171C7.1309 12.7186 7.14696 13.3207 7.54841 13.7302C8.36735 14.5492 9.1863 15.3681 10.0053 16.1871C10.4388 16.6206 11.033 16.6367 11.4665 16.2031C13.1285 14.5492 14.7824 12.8872 16.4444 11.2252C16.6371 11.0325 16.7495 10.7916 16.7415 10.5026H16.7495Z" fill="#2083FE"/>
<path d="M8.00549 3.97512C8.00549 4.29627 8.00549 4.61743 7.99746 4.93056C7.98943 5.54878 7.5639 5.99037 6.98582 5.98234C6.4238 5.98234 6.00629 5.53273 5.99826 4.92253C5.99826 4.60137 5.99826 4.28022 5.99023 3.96709C5.99023 3.64593 5.99023 3.32478 5.99023 3.01165C6.00629 2.44963 6.40774 2.01606 6.94567 2.00001C7.52376 1.98395 7.96535 2.38539 7.98943 2.9715C8.00549 3.30872 7.99746 3.6379 8.00549 3.97512Z" fill="#BDDAFE"/>
<path d="M18.0092 3.97511C18.0092 4.3043 18.0092 4.63348 18.0012 4.95464C18.0012 5.54075 17.5676 5.98234 17.0216 5.99037C16.4516 5.99037 16.018 5.5568 16.01 4.96267C16.01 4.63348 16.01 4.3043 16.002 3.98314C16.002 3.66198 16.002 3.34083 16.01 3.0277C16.018 2.4175 16.4435 2 17.0297 2C17.5917 2 18.0012 2.44159 18.0092 3.03573C18.0092 3.34886 18.0092 3.66198 18.0092 3.97511Z" fill="#BDDAFE"/>
<path d="M12.9992 3.97511C12.9992 4.32035 12.9912 4.65757 12.9831 5.00281C12.9751 5.56483 12.5335 5.99839 11.9876 5.99037C11.4496 5.99037 11.0241 5.5568 11.0161 5.00281C11.0161 4.65757 11.008 4.32035 11 3.97511C11 3.64593 11 3.32477 11.0161 2.99558C11.0161 2.4175 11.4336 2 11.9956 2C12.5576 2 12.9751 2.4175 12.9831 2.98756C12.9831 3.31674 12.9912 3.6379 12.9992 3.96708V3.97511Z" fill="#BDDAFE"/>
<path d="M16.7496 10.5026C16.7576 10.7917 16.6452 11.0325 16.4525 11.2252C14.7986 12.8872 13.1366 14.5492 11.4746 16.2031C11.0411 16.6367 10.4469 16.6206 10.0134 16.1871C9.1944 15.3681 8.37546 14.5572 7.55651 13.7302C7.14703 13.3208 7.13901 12.7186 7.52439 12.3172C7.90978 11.9077 8.51195 11.8836 8.92945 12.277C9.48345 12.8069 10.0294 13.3449 10.5593 13.8988C10.7199 14.0675 10.8002 14.0434 10.9527 13.8908C12.2936 12.5339 13.6424 11.1851 14.9993 9.84425C15.5051 9.33843 16.2518 9.40266 16.6131 9.97271C16.7175 10.1333 16.7657 10.318 16.7576 10.5026H16.7496Z" fill="white"/>
</g>
<defs>
<clipPath id="clip0_2622_1739">
<rect width="20" height="20" fill="white" transform="translate(2 2)"/>
</clipPath>
</defs>
</svg>
