
<svg width="30" height="30" viewBox="0 0 30 30" fill="none" xmlns="http://www.w3.org/2000/svg">
<path d="M2.98015 16.92C2.85015 16.76 2.66015 16.71 2.51015 16.59C1.56015 15.88 1.04015 14.95 1.02015 13.76C1.02015 12.97 0.930148 12.18 1.14015 11.39C1.53015 9.93 2.91015 8.82 4.42015 8.8C5.98015 8.78 7.55015 8.8 9.12015 8.8C9.23015 8.8 9.34015 8.84 9.44015 8.75C9.54015 8.8 9.65015 8.81 9.77015 8.81C11.1901 8.81 12.6201 8.81 14.0401 8.81C14.6801 8.81 15.3301 8.81 15.9701 8.81C17.3901 8.81 18.8201 8.81 20.2401 8.81C20.3501 8.81 20.4601 8.8 20.5701 8.75C20.6701 8.84 20.7801 8.79 20.8901 8.8C22.3701 8.8 23.8601 8.8 25.3401 8.8C27.4601 8.8 28.9901 10.33 28.9901 12.45C28.9901 13.08 29.0501 13.71 28.9301 14.34C28.7301 15.38 28.1701 16.16 27.2901 16.73C27.2001 16.79 27.0801 16.82 27.0201 16.92C26.2301 17.27 25.3801 17.24 24.5401 17.24C23.4902 17.24 22.4501 17.24 21.4001 17.24C19.5901 17.24 17.7801 17.24 15.9701 17.24H14.0301C11.4101 17.24 8.78015 17.24 6.16015 17.23C5.09015 17.23 4.01015 17.35 2.98015 16.92Z" fill="#EAEBEC"/>
<path d="M2.98003 16.92C4.01003 17.36 5.09003 17.23 6.16003 17.23C8.78003 17.24 11.41 17.23 14.03 17.24C14.03 21.14 14.03 25.05 14.03 28.95C11.53 28.95 9.03003 28.96 6.53003 28.95C4.52003 28.94 2.98003 27.4 2.98003 25.39C2.97003 22.63 2.98003 19.86 2.98003 17.1C2.98003 17.04 2.98003 16.98 2.99003 16.92H2.98003Z" fill="#EAEBEC"/>
<path d="M15.9697 17.25C17.7797 17.25 19.5897 17.25 21.3997 17.25C22.4497 17.25 23.4897 17.25 24.5397 17.25C25.3797 17.25 26.2197 17.29 27.0197 16.93C27.0197 18.18 27.0197 19.43 27.0297 20.68C27.0297 22.22 27.0297 23.77 27.0297 25.31C27.0297 27.19 25.8697 28.58 24.0197 28.93C23.8397 28.96 23.6597 28.97 23.4697 28.97C20.9697 28.97 18.4697 28.97 15.9697 28.97C15.9697 25.07 15.9697 21.16 15.9697 17.26V17.25Z" fill="#EAEBEC"/>
<path d="M14.0401 8.81001C12.6201 8.81001 11.1901 8.81001 9.77013 8.81001C9.66013 8.81001 9.55013 8.80001 9.44013 8.75001C7.92013 7.73001 7.22013 5.98001 7.63013 4.24001C8.03013 2.54001 9.44013 1.23001 11.2001 1.01001C12.5801 0.84001 13.8001 1.25001 14.7701 2.26001C14.9601 2.45001 15.0401 2.45001 15.2301 2.26001C16.4401 1.06001 17.8901 0.68001 19.5101 1.18001C21.1401 1.68001 22.1401 2.84001 22.4101 4.51001C22.7001 6.29001 22.0301 7.71001 20.5501 8.75001C20.4501 8.80001 20.3401 8.81001 20.2201 8.81001C18.8001 8.81001 17.3701 8.81001 15.9501 8.81001C15.6701 8.54001 15.3301 8.33001 15.0801 8.02001C15.0101 7.94001 14.9501 7.94001 14.8801 8.02001C14.6301 8.33001 14.2801 8.53001 14.0101 8.81001H14.0401ZM11.7301 7.48001C12.9901 7.48001 14.0201 6.49001 14.0301 5.24001C14.0301 3.97001 13.0401 2.95001 11.7701 2.94001C10.5101 2.94001 9.49013 3.93001 9.47013 5.18001C9.45013 6.44001 10.4701 7.47001 11.7401 7.48001H11.7301ZM18.2701 2.95001C17.0101 2.94001 15.9901 3.94001 15.9701 5.18001C15.9601 6.45001 16.9601 7.47001 18.2301 7.48001C19.5001 7.49001 20.5401 6.47001 20.5301 5.22001C20.5301 3.97001 19.5201 2.96001 18.2601 2.95001H18.2701Z" fill="#2083FE"/>
<path d="M15.9705 17.25C15.9705 21.15 15.9705 25.06 15.9705 28.96C15.5005 29.07 15.0205 28.99 14.5505 29.01C14.3705 29.01 14.1905 29.07 14.0205 28.96C14.0205 25.06 14.0205 21.15 14.0205 17.25C14.6705 17.25 15.3105 17.25 15.9605 17.25H15.9705Z" fill="#2083FE"/>
</svg>
