<svg width="147" height="24" viewBox="0 0 147 24" fill="none" xmlns="http://www.w3.org/2000/svg">
<path d="M12 2L14.7038 8.27852L21.5106 8.90983L16.3749 13.4215L17.8779 20.0902L12 16.6L6.12215 20.0902L7.62514 13.4215L2.48944 8.90983L9.29619 8.27852L12 2Z" fill="#2083FE"/>
<path d="M38 2L40.7038 8.27852L47.5106 8.90983L42.3749 13.4215L43.8779 20.0902L38 16.6L32.1221 20.0902L33.6251 13.4215L28.4894 8.90983L35.2962 8.27852L38 2Z" fill="#2083FE"/>
<path d="M64 2L66.7038 8.27852L73.5106 8.90983L68.3749 13.4215L69.8779 20.0902L64 16.6L58.1221 20.0902L59.6251 13.4215L54.4894 8.90983L61.2962 8.27852L64 2Z" fill="#2083FE"/>
<path d="M90 2L92.7038 8.27852L99.5106 8.90983L94.3749 13.4215L95.8779 20.0902L90 16.6L84.1221 20.0902L85.6251 13.4215L80.4894 8.90983L87.2962 8.27852L90 2Z" fill="#2083FE"/>
<path d="M116 2L118.704 8.27852L125.511 8.90983L120.375 13.4215L121.878 20.0902L116 16.6L110.122 20.0902L111.625 13.4215L106.489 8.90983L113.296 8.27852L116 2Z" fill="#2083FE"/>
<path d="M133.123 4.90055V18.4917H131.714V4.90055H133.123Z" fill="#37383C" fill-opacity="0.16"/>
<path d="M141.548 17.145C139.533 17.145 138.026 15.9227 137.958 14.2289H139.528C139.605 15.1354 140.47 15.7932 141.548 15.7932C142.832 15.7932 143.754 14.866 143.754 13.6022C143.754 12.3125 142.801 11.375 141.475 11.3646C140.615 11.3595 139.968 11.6443 139.6 12.297H138.083L138.777 6.39226H144.785V7.77521H140.113L139.75 10.7379H139.854C140.299 10.3235 141.04 10.0335 141.848 10.0335C143.847 10.0335 145.324 11.5097 145.318 13.566C145.324 15.6481 143.749 17.145 141.548 17.145Z" fill="#171719"/>
</svg>
