<svg width="24" height="24" viewBox="0 0 24 24" fill="none" xmlns="http://www.w3.org/2000/svg">
<g clip-path="url(#clip0_2603_1945)">
<path fill-rule="evenodd" clip-rule="evenodd" d="M3.60011 2H20.3999C21.2836 2 22 2.71639 22 3.60011V20.3999C22 21.2836 21.2836 22 20.3999 22H3.60011C2.71639 22 2 21.2836 2 20.3999V3.60011C2 2.71639 2.71639 2 3.60011 2ZM9.29469 6.51532H14.5974C14.9558 6.51532 15.2436 6.80035 15.2436 7.15593V12.2103C15.1702 13.7511 14.7413 16.5986 11.7894 18.8703C11.7273 18.9155 11.6398 18.9127 11.5636 18.8957C11.4931 18.8788 11.4112 18.7913 11.4112 18.7913L9.70671 16.8808C9.65874 16.813 9.61641 16.7481 9.61641 16.6635C9.61641 16.5534 9.67003 16.4744 9.74058 16.4067C9.74904 16.401 10.6549 15.6475 11.0811 14.9674C11.4592 14.3635 11.7217 13.6834 11.7386 13.0569H9.29469C8.93629 13.0569 8.64844 12.7718 8.64844 12.4163V7.15593C8.64844 6.80317 8.93911 6.51532 9.29469 6.51532Z" fill="#37383C" fill-opacity="0.6"/>
</g>
<defs>
<clipPath id="clip0_2603_1945">
<rect width="20" height="20" fill="white" transform="translate(2 2)"/>
</clipPath>
</defs>
</svg>
