<svg width="38" height="38" viewBox="0 0 38 38" fill="none" xmlns="http://www.w3.org/2000/svg">
<g clip-path="url(#clip0_2603_1569)">
<path d="M31.3895 26L20.9395 28C19.8395 28 18.9395 27.1 18.9395 26V10C18.9395 8.9 19.6895 8.22 20.9395 8L31.3895 6C32.4895 6 33.3895 6.9 33.3895 8V24C33.3895 25.1 32.6695 25.75 31.3895 26Z" fill="#BDDAFE"/>
<path d="M6.48047 26L16.9305 28C18.0305 28 18.9305 27.1 18.9305 26V10C18.9305 8.9 18.1805 8.22 16.9305 8L6.48047 6C5.38047 6 4.48047 6.9 4.48047 8V24C4.48047 25.1 5.20047 25.75 6.48047 26Z" fill="#BDDAFE"/>
<path d="M33.0008 29.1599L22.5508 31.1599C21.4508 31.1599 20.5508 30.2599 20.5508 29.1599V13.1599C20.5508 12.0599 21.3008 11.3799 22.5508 11.1599L33.0008 9.15991C34.1008 9.15991 35.0008 10.0599 35.0008 11.1599V27.1599C35.0008 28.2599 34.2808 28.9099 33.0008 29.1599Z" fill="#2083FE"/>
<path d="M5 29.1599L15.45 31.1599C16.55 31.1599 17.45 30.2599 17.45 29.1599V13.1599C17.45 12.0599 16.7 11.3799 15.45 11.1599L5 9.15991C3.9 9.15991 3 10.0599 3 11.1599V27.1599C3 28.2599 3.72 28.9099 5 29.1599Z" fill="#2083FE"/>
<path d="M20 11.1599H18C16.8954 11.1599 16 12.0553 16 13.1599V29.1599C16 30.2645 16.8954 31.1599 18 31.1599H20C21.1046 31.1599 22 30.2645 22 29.1599V13.1599C22 12.0553 21.1046 11.1599 20 11.1599Z" fill="#1F6FED"/>
<path d="M22 14.9399H16V15.8799H22V14.9399Z" fill="#FFD759"/>
<path d="M22 27.0601H16V28.0001H22V27.0601Z" fill="#FFD759"/>
</g>
<defs>
<clipPath id="clip0_2603_1569">
<rect width="32" height="25.16" fill="white" transform="translate(3 6)"/>
</clipPath>
</defs>
</svg>
