
<svg width="30" height="30" viewBox="0 0 30 30" fill="none" xmlns="http://www.w3.org/2000/svg">
<g clip-path="url(#clip0_2556_3136)">
<path d="M19.2516 8.44755C18.8924 7.23921 18.0977 6.3901 16.9874 5.83491C16.5301 5.54099 15.9967 5.47567 15.4089 5.33415C15.5177 5.31238 15.5613 5.30149 15.5939 5.29061C16.6825 5.05111 17.5752 4.08226 17.6405 3.09163C17.8147 2.24252 17.5534 1.52404 17.0091 0.881768C16.5955 0.402783 16.0403 0.16329 15.4415 0H14.5489C14.5053 0.0762022 14.4074 0.0762022 14.342 0.0979742C13.7977 0.228607 13.3623 0.511643 13.014 0.936198C12.4805 1.5567 12.241 2.27518 12.4152 3.10252C12.4805 4.11492 13.3296 4.99668 14.6142 5.34504C14.059 5.47567 13.5256 5.54099 13.0684 5.83491C11.9362 6.37921 11.1851 7.25009 10.815 8.45844C10.7932 8.4911 10.7714 8.52376 10.7605 8.55641C10.5428 9.26401 10.5646 9.99337 10.5864 10.7118H19.4803C19.4803 10.4506 19.4803 10.1784 19.4803 9.91717C19.4803 9.41641 19.4476 8.91565 19.2516 8.44755Z" fill="#2083FE"/>
<path d="M25.6203 28.6738C25.0978 28.6738 24.8329 28.4561 24.8256 28.0207C24.8256 27.3348 24.8365 26.6599 24.8256 25.9741C24.8256 25.6366 24.6624 25.3862 24.3575 25.2121C24.0527 25.0488 23.737 25.1032 23.4322 25.1141C23.1492 25.1141 22.9968 25.0705 23.0512 24.7548C23.0512 23.5247 23.0512 22.2946 23.0512 21.0645C23.0512 19.7582 23.0512 18.441 23.0512 17.1346C23.0512 15.9481 23.0512 14.7506 23.0512 13.564C23.0512 13.2919 23.0621 13.0306 23.0512 12.7584C23.0512 12.5625 23.1057 12.4645 23.3125 12.4863C23.5302 12.4972 23.7479 12.4972 23.9656 12.4863C24.2487 12.4754 24.4882 12.3666 24.6515 12.1379C24.8583 11.844 24.9236 11.5174 24.7386 11.1909C24.5535 10.8425 24.2596 10.701 23.8677 10.701C22.4089 10.701 20.9502 10.701 19.4915 10.701H10.5976C9.10622 10.701 7.61484 10.701 6.12345 10.701C5.6227 10.701 5.24169 11.0929 5.24169 11.5936C5.24169 12.0944 5.61181 12.4754 6.11257 12.4863C6.34117 12.4863 6.56978 12.4863 6.79839 12.4863C6.98345 12.4863 7.03788 12.5516 7.03788 12.7258C7.03788 12.9979 7.03788 13.281 7.03788 13.5531C7.03788 14.4893 7.03788 15.4146 7.03788 16.3508C7.03788 17.3632 7.03788 18.3756 7.03788 19.388C7.03788 20.2263 7.03788 21.0536 7.03788 21.8918C7.03788 22.8389 7.03788 23.7969 7.03788 24.744C7.08142 25.0161 6.98345 25.1467 6.68953 25.1032C6.50446 25.0814 6.3194 25.1032 6.12345 25.1032C5.64447 25.1141 5.26346 25.4842 5.25257 25.9741C5.25257 26.6599 5.25257 27.3348 5.25257 28.0207C5.25257 28.1295 5.2308 28.2384 5.25257 28.3472C5.28523 28.5976 5.19814 28.7174 4.92599 28.6847C4.73004 28.6629 4.53409 28.6847 4.33815 28.6847C3.92448 28.6847 3.58701 28.9677 3.48904 29.3705C3.38018 29.8168 3.58701 30.1652 4.12043 30.47H25.9796C26.3061 30.3067 26.5783 30.089 26.6327 29.6971C26.7089 29.1201 26.2844 28.6847 25.6421 28.6847L25.6203 28.6738ZM14.1356 19.965C14.1356 19.7908 14.0811 19.7364 13.9178 19.7473C13.7546 19.7582 13.5804 19.7473 13.4171 19.7473C12.9925 19.7799 12.666 19.6275 12.4373 19.2574C12.4156 19.1812 12.4047 19.105 12.3829 19.0288C12.2741 18.4627 12.6442 17.9729 13.2103 17.9511C13.4606 17.9511 13.7001 17.9511 13.9505 17.9511C14.0811 17.9511 14.1247 17.9075 14.1247 17.7769C14.1247 17.5918 14.1247 17.3959 14.1247 17.2108C14.1029 16.8734 14.2118 16.5903 14.4513 16.3508C15.2133 15.8501 15.9535 16.4379 15.9209 17.1129C15.8918 17.6644 16.1567 17.9438 16.7156 17.9511C17.3796 17.9511 17.7824 18.4192 17.6518 19.0288C17.5429 19.4751 17.249 19.7255 16.8026 19.7364C16.5632 19.7364 16.3345 19.7364 16.0951 19.7364C15.9535 19.7364 15.91 19.7908 15.91 19.9215C15.91 20.2807 15.91 20.629 15.91 20.9883L15.9318 21.0427C15.9318 21.489 15.9318 21.9354 15.9318 22.3817C15.9318 22.926 15.5399 23.3179 15.0282 23.307C14.5275 23.307 14.1573 22.9151 14.1465 22.3817C14.1465 22.2184 14.1465 22.0442 14.1465 21.8809C14.1465 21.587 14.1573 21.2822 14.1682 20.9883C14.1682 20.6399 14.1573 20.2916 14.1682 19.9541L14.1356 19.965Z" fill="#EAEBEC"/>
<path d="M17.662 18.9635C17.7382 18.3974 17.3572 17.9729 16.7258 17.9729C16.167 17.9729 15.9021 17.6934 15.9311 17.1346C15.9529 16.4597 15.2235 15.8719 14.4615 16.3726C14.2329 16.6121 14.1131 16.8951 14.1349 17.2326C14.1458 17.4177 14.1349 17.6136 14.1349 17.7987C14.1349 17.9293 14.0914 17.9729 13.9607 17.9729C13.7104 17.9729 13.4709 17.9729 13.2205 17.9729C12.6435 17.9946 12.2734 18.4845 12.3823 19.0506C12.404 19.1268 12.4149 19.203 12.4367 19.2792C12.6653 19.6384 12.9919 19.7908 13.4164 19.769C13.5797 19.7582 13.7539 19.769 13.9172 19.769C14.0805 19.7582 14.1458 19.8126 14.1349 19.9868C14.1349 20.3351 14.1349 20.6726 14.1349 21.0209C14.1349 21.3149 14.124 21.6197 14.1131 21.9136C14.1131 22.0769 14.1131 22.2511 14.1131 22.4144C14.1131 22.9478 14.4941 23.3288 14.9949 23.3397C15.5065 23.3397 15.8876 22.9587 15.8984 22.4144C15.8984 21.968 15.8984 21.5217 15.8984 21.0754L15.8767 21.0209C15.8767 20.6617 15.8876 20.3134 15.8767 19.9541C15.8767 19.8126 15.9202 19.7582 16.0617 19.769C16.3012 19.769 16.5298 19.769 16.7693 19.769C17.2157 19.7582 17.5205 19.5078 17.6184 19.0615C17.6184 19.0397 17.6184 19.0179 17.6184 18.9961H17.6293L17.6184 18.9853L17.662 18.9635Z" fill="#2083FE"/>
</g>
<defs>
<clipPath id="clip0_2556_3136">
<rect width="30" height="30" fill="white"/>
</clipPath>
</defs>
</svg>
