
<svg width="30" height="30" viewBox="0 0 30 30" fill="none" xmlns="http://www.w3.org/2000/svg">
<path d="M20.3015 23.71H4.69148C3.35148 23.71 2.27148 24.79 2.27148 26.13C2.27148 27.47 3.35148 28.55 4.69148 28.55H20.3015C21.7315 28.55 22.9015 27.39 22.9015 25.95V21.12C22.9015 22.55 21.7415 23.71 20.3015 23.71Z" fill="#2083FE"/>
<path d="M20.3005 1.46001H4.16055C2.73055 1.46001 1.56055 2.62001 1.56055 4.06001V25.95C1.56055 27.38 2.72055 28.55 4.16055 28.55H4.69055C3.35055 28.55 2.27055 27.47 2.27055 26.13C2.27055 24.79 3.35055 23.71 4.69055 23.71H20.3005C21.7305 23.71 22.8905 22.55 22.9005 21.12V4.05001C22.9005 2.62001 21.7405 1.45001 20.3005 1.45001V1.46001Z" fill="#EAEBEC"/>
<path d="M15.5195 10.48C14.7795 10.48 14.0495 10.48 13.3095 10.48C13.1095 10.48 13.0595 10.42 13.0595 10.23C13.0695 9.49999 13.0595 8.77 13.0595 8.05C13.0595 7.5 12.7195 7.12 12.2295 7.12C11.7295 7.12 11.3795 7.49 11.3795 8.06C11.3795 8.77 11.3695 9.47999 11.3795 10.19C11.3795 10.45 11.2995 10.5 11.0695 10.49C10.3895 10.47 9.70953 10.49 9.02953 10.49C8.33953 10.49 8.01953 10.8 8.01953 11.49C8.18953 11.98 8.52953 12.18 9.04953 12.16C9.73953 12.14 10.4295 12.16 11.1195 12.16C11.3195 12.16 11.3995 12.2 11.3895 12.42C11.3695 12.75 11.3895 13.07 11.3895 13.4C11.3895 14.97 11.3795 16.54 11.3895 18.11C11.3895 18.54 11.7895 18.9 12.2095 18.9C12.6495 18.9 13.0595 18.55 13.0595 18.11C13.0595 16.54 13.0595 14.97 13.0595 13.4C13.0595 13.25 13.0595 13.1 13.0695 12.96C13.0695 12.77 13.0695 12.59 13.0595 12.4C13.0395 12.22 13.1095 12.16 13.2995 12.16C14.0395 12.16 14.7695 12.16 15.5095 12.16C16.0595 12.16 16.4295 11.81 16.4295 11.32C16.4295 10.84 16.0495 10.5 15.5195 10.49V10.48Z" fill="#2083FE"/>
<path d="M26.5806 1.85999H26.2006C25.0606 1.85999 24.1406 2.77999 24.1406 3.91999V5.45999H28.6406V3.91999C28.6406 2.77999 27.7206 1.85999 26.5806 1.85999Z" fill="#EAEBEC"/>
<path d="M28.6406 5.45999H24.1406V6.69999H28.6406V5.45999Z" fill="#2083FE"/>
<path d="M26.2006 28.54H26.5806C27.7206 28.54 28.6406 24.12 28.6406 24.12H24.1406C24.1406 24.12 25.0606 28.54 26.2006 28.54Z" fill="#EAEBEC"/>
<path d="M28.6406 6.69998H24.1406V22.88H28.6406V6.69998Z" fill="#EAEBEC"/>
<path d="M28.6406 22.88H24.1406V24.12H28.6406V22.88Z" fill="#2083FE"/>
</svg>
