
<svg width="30" height="30" viewBox="0 0 30 30" fill="none" xmlns="http://www.w3.org/2000/svg">
<path d="M21.4197 12.23C21.3597 12.13 21.3697 12.02 21.3697 11.91C21.3697 9.65998 21.3597 7.40998 21.3697 5.14998C21.3697 4.40998 21.4297 3.65998 21.9097 3.02998C22.2597 2.56998 22.6597 2.16998 23.2297 1.98998C23.2997 1.96998 23.3797 1.95998 23.3797 1.85998C24.0697 1.81998 24.7497 1.85998 25.3297 2.28998C26.0797 2.85998 26.5297 3.60998 26.5397 4.55998C26.5597 6.71999 26.5397 8.88999 26.5397 11.05C26.5397 11.77 26.0897 12.22 25.3597 12.22C24.0397 12.22 22.7197 12.22 21.4097 12.22L21.4197 12.23Z" fill="#2083FE"/>
<path d="M11.7903 20.85C9.46028 20.85 7.14028 20.85 4.81028 20.85C4.67028 20.85 4.54028 20.85 4.41028 20.78C4.26028 20.7 4.16028 20.59 4.18028 20.41C4.20028 20.22 4.29028 20.08 4.48028 20.03C4.61028 19.99 4.74028 19.97 4.88028 19.97C9.48028 19.97 14.0803 19.97 18.6803 19.97C18.8303 19.97 18.9703 20 19.1103 20.03C19.2903 20.07 19.3903 20.19 19.4003 20.38C19.4003 20.57 19.3403 20.71 19.1503 20.79C19.0303 20.84 18.9003 20.84 18.7803 20.84C16.4503 20.84 14.1303 20.84 11.8003 20.84L11.7903 20.85Z" fill="#2083FE"/>
<path d="M11.8097 23.42C9.46969 23.42 7.13969 23.42 4.79969 23.42C4.71969 23.42 4.62969 23.42 4.54969 23.42C4.31969 23.39 4.17969 23.25 4.17969 23.02C4.17969 22.79 4.31969 22.65 4.53969 22.61C4.60969 22.6 4.67969 22.61 4.75969 22.61C9.43969 22.61 14.1197 22.61 18.7997 22.61C18.8497 22.61 18.8897 22.61 18.9397 22.61C19.2097 22.62 19.3897 22.79 19.3897 23.02C19.3897 23.26 19.1997 23.43 18.9197 23.43C16.5497 23.43 14.1697 23.43 11.7997 23.43L11.8097 23.42Z" fill="#2083FE"/>
<path d="M11.7997 25.22C14.1697 25.22 16.5497 25.22 18.9197 25.22C19.2097 25.22 19.3997 25.36 19.3997 25.58C19.4097 25.83 19.2797 25.97 19.0397 26.02C18.9397 26.04 18.8397 26.04 18.7397 26.04C14.0997 26.04 9.46974 26.04 4.82974 26.04C4.70974 26.04 4.59974 26.04 4.47974 26.01C4.25974 25.94 4.14974 25.8 4.18974 25.58C4.21974 25.37 4.34974 25.22 4.58974 25.22C5.27974 25.22 5.96974 25.22 6.65974 25.22C8.36974 25.22 10.0797 25.22 11.7897 25.22H11.7997Z" fill="#2083FE"/>
<path d="M23.28 1.86999C16.92 1.86999 10.57 1.86999 4.20996 1.86999C3.15996 1.86999 2.20996 2.82999 2.20996 3.88999C2.20996 11.76 2.20996 19.64 2.20996 27.51C2.20996 28.06 2.71996 28.61 3.31996 28.61C8.97996 28.61 14.63 28.61 20.29 28.61C20.68 28.61 20.99 28.44 21.21 28.12C21.41 27.84 21.43 27.51 21.43 27.18C21.43 22.2 21.43 17.21 21.43 12.23C21.37 12.13 21.38 12.02 21.38 11.91C21.38 9.65999 21.37 7.40999 21.38 5.14999C21.38 4.40999 21.44 3.65999 21.92 3.02999C22.27 2.56999 22.67 2.16999 23.24 1.98999C23.31 1.96999 23.39 1.95999 23.39 1.85999C23.35 1.85999 23.32 1.85999 23.28 1.85999V1.86999ZM4.47996 20.04C4.60996 20 4.73996 19.98 4.87996 19.98C9.47996 19.98 14.08 19.98 18.68 19.98C18.83 19.98 18.97 20.01 19.11 20.04C19.29 20.08 19.39 20.2 19.4 20.39C19.4 20.58 19.34 20.72 19.15 20.8C19.03 20.85 18.9 20.85 18.78 20.85C16.45 20.85 14.13 20.85 11.8 20.85C9.46996 20.85 7.14996 20.85 4.81996 20.85C4.67996 20.85 4.54996 20.85 4.41996 20.78C4.26996 20.7 4.16996 20.59 4.18996 20.41C4.20996 20.22 4.29996 20.08 4.48996 20.03L4.47996 20.04ZM19.04 26.02C18.94 26.04 18.84 26.04 18.74 26.04C14.1 26.04 9.46996 26.04 4.82996 26.04C4.70996 26.04 4.59996 26.04 4.47996 26.01C4.25996 25.94 4.14996 25.8 4.18996 25.58C4.21996 25.37 4.34996 25.22 4.58996 25.22C5.27996 25.22 5.96996 25.22 6.65996 25.22C8.36996 25.22 10.08 25.22 11.79 25.22C14.16 25.22 16.54 25.22 18.91 25.22C19.2 25.22 19.39 25.36 19.39 25.58C19.4 25.83 19.27 25.97 19.03 26.02H19.04ZM18.93 23.42C16.56 23.42 14.18 23.42 11.81 23.42C9.46996 23.42 7.13996 23.42 4.79996 23.42C4.71996 23.42 4.62996 23.42 4.55996 23.42C4.32996 23.39 4.18996 23.25 4.18996 23.02C4.18996 22.79 4.32996 22.65 4.54996 22.61C4.61996 22.6 4.69996 22.61 4.76996 22.61C9.44996 22.61 14.13 22.61 18.81 22.61C18.86 22.61 18.9 22.61 18.95 22.61C19.22 22.62 19.4 22.79 19.4 23.02C19.4 23.26 19.21 23.43 18.93 23.43V23.42Z" fill="#EAEBEC"/>
<path d="M25.8394 7.37H25.4594C24.3194 7.37 23.3994 8.29 23.3994 9.43V10.97H27.8994V9.43C27.8994 8.29 26.9794 7.37 25.8394 7.37Z" fill="#EAEBEC"/>
<path d="M27.8994 10.97H23.3994V12.21H27.8994V10.97Z" fill="#EAEBEC"/>
<path d="M25.4496 28.54H25.8296C26.9696 28.54 27.8896 24.11 27.8896 24.11H23.3896C23.3896 24.11 24.3096 28.54 25.4496 28.54Z" fill="#EAEBEC"/>
<path d="M27.8994 12.21H23.3994V22.87H27.8994V12.21Z" fill="#EAEBEC"/>
<path d="M27.8994 22.87H23.3994V24.11H27.8994V22.87Z" fill="#2083FE"/>
</svg>
