
<svg width="36" height="36" viewBox="0 0 36 36" fill="none" xmlns="http://www.w3.org/2000/svg">
<path d="M21.5381 33.1626C25.8077 31.8438 28.9099 27.8661 28.9099 23.1641C28.9099 21.1861 28.3586 19.3377 27.4074 17.7704C27.2777 17.4785 27.148 17.1867 27.0075 16.9057C26.3698 15.6194 25.732 14.3331 25.0835 13.0576C24.2079 11.3281 23.3216 9.59869 22.4352 7.88004C21.5705 6.19382 20.7058 4.49679 19.8411 2.81057C19.6465 2.43225 19.4411 2.06474 19.2574 1.68642C19.1277 1.427 18.9007 1.31891 18.6629 1.20001H18.1548C17.7873 1.34053 17.5928 1.63238 17.4198 1.96746C16.4794 3.82663 15.539 5.67499 14.5878 7.52334C13.7663 9.12309 12.9665 10.7228 12.1342 12.3118C11.3667 13.771 10.6425 15.2519 9.90749 16.7219C9.59402 17.3488 9.31299 17.9866 9.01033 18.6243C8.78334 19.0891 8.59958 19.5647 8.44826 20.0619C8.2645 20.5807 8.11317 21.1212 8.03751 21.6725C8.00508 21.8238 8.09156 21.9859 7.97266 22.1156V24.018H8.00508H8.01589C8.01589 24.0937 8.0267 24.1694 8.03751 24.245C8.06994 24.9693 8.25369 25.6718 8.48068 26.3636C8.68606 27.0554 8.94548 27.7256 9.34541 28.3309C9.39946 28.4282 9.4535 28.5146 9.50755 28.6119C9.88587 29.3145 10.3939 29.9198 10.9452 30.4819C11.691 31.2926 12.5773 31.9411 13.5502 32.4492C15.3877 33.4004 17.3333 33.8111 19.4087 33.6057C20.0681 33.5409 20.695 33.422 21.3111 33.2382C21.3868 33.2166 21.4624 33.195 21.5273 33.1734L21.5381 33.1626Z" fill="white"/>
<path d="M21.5381 33.1626C25.8077 31.8438 28.9099 27.8661 28.9099 23.1641C28.9099 21.1861 28.3586 19.3377 27.4074 17.7704C27.2777 17.4785 27.148 17.1867 27.0075 16.9057C26.3698 15.6194 25.732 14.3331 25.0835 13.0576C24.2079 11.3282 23.3216 9.59869 22.4352 7.88004C21.5705 6.19382 20.7058 4.49679 19.8411 2.81057C19.6465 2.43225 19.4411 2.06474 19.2574 1.68642C19.1277 1.427 18.9007 1.31891 18.6629 1.20001H18.1548C17.7873 1.34053 17.5928 1.63238 17.4198 1.96746C16.4794 3.82663 15.539 5.67499 14.5878 7.52334C13.7663 9.12309 12.9665 10.7228 12.1342 12.3118C11.3667 13.771 10.6425 15.2519 9.90749 16.7219C9.59402 17.3488 9.31299 17.9866 9.01033 18.6243C8.78334 19.0891 8.59958 19.5647 8.44826 20.0619C8.2645 20.5808 8.11317 21.1212 8.03751 21.6725C8.00508 21.8238 8.09156 21.9859 7.97266 22.1156V24.018H8.00508H8.01589C8.01589 24.0937 8.0267 24.1694 8.03751 24.245C8.06994 24.9693 8.25369 25.6718 8.48068 26.3636C8.68606 27.0554 8.94548 27.7256 9.34541 28.3309C9.39946 28.4282 9.4535 28.5146 9.50755 28.6119C9.88587 29.3145 10.3939 29.9198 10.9452 30.4819C11.691 31.2926 12.5773 31.9411 13.5502 32.4492C15.3877 33.4004 17.3333 33.8111 19.4087 33.6057C20.0681 33.5409 20.695 33.422 21.3111 33.2382C21.3868 33.2166 21.4624 33.195 21.5273 33.1734L21.5381 33.1626Z" stroke="#231815" stroke-miterlimit="10"/>
<path d="M22.1784 18.4405C21.3244 18.4405 20.4705 18.4405 19.6166 18.4405C19.4869 18.4405 19.3139 18.4945 19.368 18.2459C19.368 17.9541 19.3572 17.6514 19.3464 17.3596C19.3464 16.7543 19.368 16.1598 19.3464 15.5545C19.3356 15.0248 18.9032 14.6249 18.3844 14.6249C17.8763 14.6249 17.4656 15.0356 17.4548 15.5545C17.444 16.149 17.4548 16.7543 17.4548 17.3596C17.4548 17.6082 17.4223 17.8676 17.4548 18.1162C17.4764 18.3973 17.3683 18.4405 17.1197 18.4405C16.3522 18.4189 15.574 18.4405 14.8065 18.4297C14.4715 18.4297 14.1796 18.4945 13.9202 18.6999C13.6716 19.0566 13.5203 19.4133 13.7797 19.8349C13.9526 20.2024 14.2661 20.3429 14.6552 20.3429C15.347 20.3429 16.0496 20.3429 16.7414 20.3429C17.2026 20.3429 17.4404 20.5771 17.4548 21.0455C17.4548 21.0455 17.4548 21.0887 17.4548 21.1103C17.4548 21.2833 17.444 21.4454 17.4332 21.6184C17.4332 22.3534 17.444 23.0992 17.4548 23.8342C17.4548 23.8991 17.444 23.964 17.4332 24.018C17.4332 24.7963 17.4332 25.5853 17.4332 26.3636C17.4332 26.5798 17.4332 26.8067 17.444 27.0229C17.4656 27.5742 17.8655 27.9525 18.3952 27.9417C18.8924 27.9417 19.3248 27.4985 19.3356 26.9905C19.3356 26.8392 19.3356 26.6987 19.3464 26.5473C19.3464 25.9528 19.3464 25.3691 19.3464 24.7746C19.3464 24.4612 19.3356 24.1369 19.3248 23.8234C19.3248 23.4235 19.3356 23.0236 19.3464 22.6128C19.3464 22.1048 19.3356 21.5968 19.3248 21.0887C19.3248 20.9374 19.3464 20.7969 19.3248 20.6456C19.2923 20.3753 19.4004 20.3105 19.6598 20.3213C20.4273 20.3429 21.1947 20.3213 21.9622 20.3213C22.1892 20.3213 22.4053 20.3213 22.6107 20.224C22.762 20.1159 22.935 20.0078 22.989 19.8133C23.3349 19.1431 22.9134 18.4297 22.1459 18.4189L22.1784 18.4405Z" fill="#2083FE"/>
</svg>
