
<svg width="30" height="30" viewBox="0 0 30 30" fill="none" xmlns="http://www.w3.org/2000/svg">
<path d="M5.59031 9.09001C5.59031 6.94001 5.59031 4.79001 5.59031 2.64001C5.59031 1.96001 5.95031 1.60001 6.62031 1.60001C12.2203 1.60001 17.8203 1.60001 23.4203 1.60001C24.0903 1.60001 24.4503 1.97001 24.4503 2.64001C24.4503 4.79001 24.4503 6.94001 24.4503 9.09001C24.4503 11.27 24.4503 13.45 24.4503 15.62C22.7003 17.18 20.9503 18.73 19.2003 20.29C19.0803 20.29 19.0003 20.21 18.9203 20.14C18.4603 19.75 18.0003 19.35 17.5403 18.95C16.1903 17.79 14.5303 17.62 13.0903 18.5C12.6003 18.8 12.2203 19.23 11.7803 19.58C11.4903 19.81 11.2703 20.15 10.8903 20.27C9.77031 19.27 8.65031 18.28 7.53031 17.27C6.88031 16.68 6.19031 16.12 5.57031 15.5C5.57031 13.36 5.57031 11.22 5.57031 9.09001H5.59031ZM15.0103 6.31001C16.9903 6.31001 18.9803 6.31001 20.9603 6.31001C21.0403 6.31001 21.1203 6.31001 21.2003 6.31001C21.4603 6.29001 21.6303 6.10001 21.6403 5.85001C21.6403 5.59001 21.4703 5.40001 21.2103 5.37001C21.1503 5.37001 21.0903 5.37001 21.0303 5.37001C17.0303 5.37001 13.0403 5.37001 9.04031 5.37001C8.98031 5.37001 8.92031 5.37001 8.86031 5.37001C8.60031 5.39001 8.43031 5.58001 8.42031 5.83001C8.42031 6.09001 8.59031 6.28001 8.85031 6.31001C8.93031 6.31001 9.01031 6.31001 9.09031 6.31001C11.0603 6.31001 13.0403 6.31001 15.0103 6.31001ZM15.0303 8.20001C13.0503 8.20001 11.0603 8.20001 9.08031 8.20001C8.99031 8.20001 8.90031 8.19001 8.82031 8.20001C8.58031 8.25001 8.44031 8.40001 8.44031 8.65001C8.44031 8.91001 8.58031 9.07001 8.83031 9.13001C8.90031 9.14001 8.97031 9.13001 9.04031 9.13001C13.0503 9.13001 17.0503 9.13001 21.0603 9.13001C21.1303 9.13001 21.2003 9.13001 21.2703 9.13001C21.5103 9.07001 21.6503 8.93001 21.6503 8.68001C21.6503 8.42001 21.5103 8.26001 21.2603 8.20001C21.1803 8.18001 21.0803 8.20001 21.0003 8.20001C19.0203 8.20001 17.0303 8.20001 15.0503 8.20001H15.0303ZM15.0103 11.97C16.9803 11.97 18.9603 11.97 20.9303 11.97C21.0203 11.97 21.1103 11.97 21.1903 11.97C21.4503 11.95 21.6203 11.76 21.6303 11.51C21.6303 11.25 21.4603 11.06 21.2003 11.04C21.1403 11.04 21.0803 11.04 21.0203 11.04C17.0203 11.04 13.0303 11.04 9.03031 11.04C8.96031 11.04 8.89031 11.04 8.82031 11.04C8.56031 11.09 8.42031 11.24 8.41031 11.5C8.41031 11.76 8.55031 11.92 8.81031 11.97C8.90031 11.99 8.99031 11.97 9.07031 11.97C11.0403 11.97 13.0203 11.97 14.9903 11.97H15.0103ZM15.0303 13.86C13.0503 13.86 11.0603 13.86 9.08031 13.86C8.99031 13.86 8.90031 13.85 8.82031 13.86C8.58031 13.91 8.44031 14.06 8.44031 14.31C8.44031 14.57 8.58031 14.73 8.83031 14.79C8.91031 14.81 8.99031 14.79 9.06031 14.79C13.0503 14.79 17.0303 14.79 21.0203 14.79C21.1003 14.79 21.1803 14.8 21.2503 14.79C21.4903 14.74 21.6303 14.59 21.6303 14.34C21.6303 14.08 21.4903 13.92 21.2403 13.86C21.1603 13.84 21.0603 13.86 20.9803 13.86C19.0003 13.86 17.0103 13.86 15.0303 13.86Z" fill="#EAEBEC"/>
<path d="M27.7688 27.66C26.9088 26.93 26.0588 26.21 25.1988 25.48C24.3488 24.76 23.4988 24.05 22.6488 23.33C22.0388 22.81 21.4388 22.28 20.8288 21.76C20.3788 21.38 19.9288 21.01 19.4888 20.63C19.3788 20.54 19.2387 20.46 19.2188 20.3C20.9688 18.74 22.7188 17.19 24.4688 15.63C24.9088 15.24 25.3388 14.85 25.7788 14.46C26.2188 14.07 26.6588 13.69 27.0988 13.3C27.5088 12.94 27.8988 12.56 28.2987 12.19C28.4187 12.22 28.4288 12.33 28.4587 12.42C28.6087 12.84 28.7087 13.26 28.7087 13.71C28.7087 17.58 28.7087 21.44 28.7087 25.31C28.7087 26.21 28.3788 26.99 27.7788 27.65L27.7688 27.66Z" fill="#EAEBEC"/>
<path d="M28.2987 12.19C27.8987 12.56 27.4988 12.93 27.0988 13.3C26.6588 13.69 26.2188 14.07 25.7788 14.46C25.3388 14.85 24.8988 15.24 24.4688 15.63C24.4688 13.45 24.4688 11.27 24.4688 9.10001C25.4488 9.70001 26.4188 10.32 27.3488 10.99C27.7688 11.3 28.0787 11.72 28.2987 12.2V12.19Z" fill="#2083FE"/>
<path d="M5.58977 15.51C5.28977 15.37 5.08977 15.1 4.84977 14.89C4.02977 14.19 3.24977 13.45 2.43977 12.75C2.21977 12.56 2.04977 12.31 1.75977 12.21C1.96977 11.71 2.28977 11.29 2.72977 10.98C3.65977 10.32 4.61977 9.70001 5.59977 9.10001C5.59977 11.24 5.59977 13.38 5.59977 15.51H5.58977Z" fill="#2083FE"/>
<path fill-rule="evenodd" clip-rule="evenodd" d="M10.8967 20.2874C10.8977 20.285 10.8987 20.2825 10.8996 20.28V20.29C10.8987 20.2891 10.8977 20.2883 10.8967 20.2874ZM1.37795 25.379C1.37254 25.3862 1.36645 25.3932 1.35961 25.4C1.35961 25.335 1.35711 25.2725 1.35461 25.21C1.35211 25.1475 1.34961 25.085 1.34961 25.02V14.03C1.34961 13.8999 1.34961 13.7785 1.35763 13.6496C1.35509 13.6464 1.35242 13.6432 1.34961 13.64C1.37961 13.14 1.48961 12.66 1.74961 12.22C1.95566 12.2911 2.10113 12.4378 2.24699 12.585C2.30642 12.645 2.36592 12.705 2.42961 12.76C2.79009 13.0715 3.14464 13.393 3.49941 13.7146C3.9418 14.1157 4.38454 14.5171 4.83961 14.9C4.91233 14.9636 4.98139 15.0328 5.05066 15.1021C5.21 15.2617 5.37052 15.4224 5.57961 15.52C5.98462 15.9315 6.4195 16.3089 6.85359 16.6857C7.08401 16.8856 7.31422 17.0854 7.53961 17.29C8.27962 17.9567 9.02851 18.6233 9.7774 19.29C10.1509 19.6225 10.5244 19.955 10.8967 20.2874C10.8017 20.5313 10.6062 20.679 10.4099 20.8273C10.3126 20.9008 10.2152 20.9744 10.1296 21.06C9.84822 21.3342 9.54601 21.5875 9.24175 21.8426C9.12432 21.941 9.00658 22.0397 8.88961 22.14C7.91961 22.99 6.94961 23.84 5.97961 24.7C5.57283 25.0593 5.17064 25.4232 4.76682 25.7886C4.57501 25.9622 4.38283 26.1361 4.18961 26.31C3.60961 26.82 3.02961 27.33 2.45961 27.85C1.76961 27.19 1.41961 26.37 1.34961 25.42C1.36124 25.4069 1.37054 25.3932 1.37795 25.379Z" fill="#EAEBEC"/>
<path d="M15.0099 6.31003C13.0399 6.31003 11.0599 6.31003 9.08992 6.31003C9.00992 6.31003 8.92992 6.31003 8.84992 6.31003C8.58992 6.28003 8.41992 6.09003 8.41992 5.83003C8.41992 5.57003 8.59992 5.39003 8.85992 5.37003C8.91992 5.37003 8.97992 5.37003 9.03992 5.37003C13.0399 5.37003 17.0299 5.37003 21.0299 5.37003C21.0899 5.37003 21.1499 5.37003 21.2099 5.37003C21.4699 5.40003 21.6399 5.59003 21.6399 5.85003C21.6399 6.11003 21.4599 6.29003 21.1999 6.31003C21.1199 6.31003 21.0399 6.31003 20.9599 6.31003C18.9799 6.31003 16.9899 6.31003 15.0099 6.31003Z" fill="#2083FE"/>
<path d="M15.0299 8.20002C17.0099 8.20002 18.9999 8.20002 20.9799 8.20002C21.0699 8.20002 21.1599 8.19002 21.2399 8.20002C21.4899 8.25002 21.6299 8.41002 21.6299 8.68002C21.6299 8.93002 21.4799 9.08002 21.2499 9.13002C21.1799 9.15002 21.1099 9.13002 21.0399 9.13002C17.0299 9.13002 13.0299 9.13002 9.01992 9.13002C8.94992 9.13002 8.87992 9.13002 8.80992 9.13002C8.55992 9.07002 8.41992 8.92002 8.41992 8.65002C8.41992 8.40002 8.55992 8.25002 8.79992 8.20002C8.87992 8.18002 8.97992 8.20002 9.05992 8.20002C11.0399 8.20002 13.0299 8.20002 15.0099 8.20002H15.0299Z" fill="#2083FE"/>
<path d="M15.0097 11.97C13.0397 11.97 11.0597 11.97 9.08969 11.97C8.99969 11.97 8.90969 11.98 8.82969 11.97C8.57969 11.92 8.42969 11.76 8.42969 11.5C8.42969 11.24 8.57969 11.08 8.83969 11.04C8.90969 11.03 8.97969 11.04 9.04969 11.04C13.0497 11.04 17.0397 11.04 21.0397 11.04C21.0997 11.04 21.1597 11.04 21.2197 11.04C21.4797 11.07 21.6497 11.26 21.6497 11.51C21.6497 11.77 21.4797 11.95 21.2097 11.97C21.1197 11.97 21.0297 11.97 20.9497 11.97C18.9797 11.97 16.9997 11.97 15.0297 11.97H15.0097Z" fill="#2083FE"/>
<path d="M15.0295 13.86C17.0095 13.86 18.9995 13.86 20.9795 13.86C21.0695 13.86 21.1595 13.85 21.2395 13.86C21.4895 13.91 21.6295 14.07 21.6295 14.34C21.6295 14.59 21.4795 14.74 21.2495 14.79C21.1795 14.81 21.0895 14.79 21.0195 14.79C17.0295 14.79 13.0495 14.79 9.05945 14.79C8.97945 14.79 8.89945 14.8 8.82945 14.79C8.57945 14.73 8.43945 14.58 8.43945 14.31C8.43945 14.06 8.57945 13.91 8.81945 13.86C8.89945 13.84 8.99945 13.86 9.07945 13.86C11.0595 13.86 13.0495 13.86 15.0295 13.86Z" fill="#2083FE"/>
<path d="M25.1988 25.48C24.3488 24.76 23.4988 24.05 22.6488 23.33C22.0387 22.81 21.4388 22.28 20.8288 21.76C20.3787 21.38 19.9288 21.01 19.4888 20.63C19.3787 20.54 19.2388 20.47 19.2188 20.3C19.0987 20.3 19.0188 20.22 18.9388 20.15C18.4788 19.76 18.0187 19.36 17.5587 18.96C16.2087 17.8 14.5487 17.63 13.1087 18.51C12.6187 18.81 12.2387 19.24 11.7987 19.59C11.5087 19.82 11.2887 20.16 10.9087 20.28C10.7687 20.65 10.3988 20.8 10.1388 21.06C9.74875 21.44 9.31875 21.78 8.89875 22.14C7.92875 22.99 6.95875 23.84 5.98875 24.7C5.38875 25.23 4.79875 25.77 4.19875 26.31C3.61875 26.82 3.04875 27.33 2.46875 27.85C3.13875 28.55 3.94875 28.95 4.90875 28.95C11.6287 28.96 18.3588 28.96 25.0788 28.95C26.1688 28.95 27.0588 28.49 27.7688 27.66C26.9088 26.93 26.0588 26.21 25.1988 25.48Z" fill="#2083FE"/>
</svg>
