<svg width="80" height="80" viewBox="0 0 80 80" fill="none" xmlns="http://www.w3.org/2000/svg">
<path d="M68.5861 39.6533C72.7728 35.9733 75.4395 30.6133 75.4395 24.5867C75.4395 13.5467 66.4795 4.58667 55.4395 4.58667C44.3995 4.58667 35.4395 13.5467 35.4395 24.5867C35.4395 35.6267 44.3995 44.5867 55.4395 44.5867C55.5995 44.5867 55.7595 44.5867 55.9195 44.5867H71.2261C71.2261 44.5867 69.3595 43.68 68.6128 39.6533H68.5861Z" fill="#7A46FF"/>
<path d="M24.5859 35.4133C13.5459 35.4133 4.58594 44.3733 4.58594 55.4133C4.58594 61.4133 7.2526 66.8 11.4393 70.4533H11.4126C10.6659 74.5067 8.79927 75.4133 8.79927 75.4133H24.1059C24.2659 75.4133 24.4526 75.4133 24.6126 75.4133C35.6526 75.4133 44.6126 66.4533 44.6126 55.4133C44.6126 44.3733 35.6526 35.4133 24.6126 35.4133H24.5859Z" fill="#7A46FF"/>
<path d="M29.0399 51.04H26.7999V48.8C26.7999 47.5733 25.8133 46.5867 24.5866 46.5867C23.3599 46.5867 22.3733 47.5733 22.3733 48.8V51.04H20.1333C18.9066 51.04 17.9199 52.0267 17.9199 53.2533C17.9199 54.48 18.9066 55.4667 20.1333 55.4667H22.3733V62.0267C22.3733 63.2533 23.3599 64.24 24.5866 64.24C25.8133 64.24 26.7999 63.2533 26.7999 62.0267V55.4667H29.0399C30.2666 55.4667 31.2533 54.48 31.2533 53.2533C31.2533 52.0267 30.2666 51.04 29.0399 51.04Z" fill="white"/>
<path d="M59.8407 20.2133H57.6007V17.9733C57.6007 16.7467 56.614 15.76 55.3874 15.76C54.1607 15.76 53.174 16.7467 53.174 17.9733V20.2133H50.934C49.7074 20.2133 48.7207 21.2 48.7207 22.4267C48.7207 23.6533 49.7074 24.64 50.934 24.64H53.174V31.2C53.174 32.4267 54.1607 33.4133 55.3874 33.4133C56.614 33.4133 57.6007 32.4267 57.6007 31.2V24.64H59.8407C61.0674 24.64 62.054 23.6533 62.054 22.4267C62.054 21.2 61.0674 20.2133 59.8407 20.2133Z" fill="white"/>
<path d="M29.0399 51.04H26.7999V48.8C26.7999 47.5733 25.8133 46.5867 24.5866 46.5867C23.3599 46.5867 22.3733 47.5733 22.3733 48.8V51.04H20.1333C18.9066 51.04 17.9199 52.0267 17.9199 53.2533C17.9199 54.48 18.9066 55.4667 20.1333 55.4667H22.3733V62.0267C22.3733 63.2533 23.3599 64.24 24.5866 64.24C25.8133 64.24 26.7999 63.2533 26.7999 62.0267V55.4667H29.0399C30.2666 55.4667 31.2533 54.48 31.2533 53.2533C31.2533 52.0267 30.2666 51.04 29.0399 51.04Z" fill="white"/>
<path d="M59.8407 20.2133H57.6007V17.9733C57.6007 16.7467 56.614 15.76 55.3874 15.76C54.1607 15.76 53.174 16.7467 53.174 17.9733V20.2133H50.934C49.7074 20.2133 48.7207 21.2 48.7207 22.4267C48.7207 23.6533 49.7074 24.64 50.934 24.64H53.174V31.2C53.174 32.4267 54.1607 33.4133 55.3874 33.4133C56.614 33.4133 57.6007 32.4267 57.6007 31.2V24.64H59.8407C61.0674 24.64 62.054 23.6533 62.054 22.4267C62.054 21.2 61.0674 20.2133 59.8407 20.2133Z" fill="white"/>
</svg>
