<svg width="80" height="80" viewBox="0 0 80 80" fill="none" xmlns="http://www.w3.org/2000/svg">
<path d="M52.8364 61.0569H15.0985C11.859 61.0569 9.24805 63.6678 9.24805 66.9073C9.24805 70.1468 11.859 72.7578 15.0985 72.7578H52.8364C56.2935 72.7578 59.1221 69.9534 59.1221 66.4722V54.7954C59.1221 58.2525 56.3177 61.0569 52.8364 61.0569Z" fill="#C8E0FF"/>
<path d="M52.8381 7.26636H13.8188C10.3617 7.26636 7.5332 10.0707 7.5332 13.552V66.4721C7.5332 69.9292 10.3376 72.7577 13.8188 72.7577H15.1001C11.8606 72.7577 9.24966 70.1468 9.24966 66.9073C9.24966 63.6678 11.8606 61.0568 15.1001 61.0568H52.8381C56.2951 61.0568 59.0995 58.2524 59.1237 54.7954V13.5278C59.1237 10.0707 56.3193 7.24219 52.8381 7.24219V7.26636Z" fill="#318CFF"/>
<path d="M40.8359 28.9864C39.0761 28.9864 37.3401 28.9864 35.5803 28.9864C35.1046 28.9864 34.9857 28.8438 34.9857 28.3922C35.0095 26.657 34.9857 24.9219 34.9857 23.2105C34.9857 21.9032 34.1772 21 33.0119 21C31.8228 21 30.9905 21.8795 30.9905 23.2343C30.9905 24.9219 30.9667 26.6095 30.9905 28.2971C30.9905 28.9151 30.8002 29.034 30.2533 29.0102C28.6361 28.9626 27.019 29.0102 25.4019 29.0102C23.761 29.0102 23 29.747 23 31.3871C23.4043 32.5518 24.2128 33.0272 25.4495 32.9796C27.0904 32.9321 28.7313 32.9796 30.3722 32.9796C30.8478 32.9796 31.038 33.0747 31.0143 33.5976C30.9667 34.382 31.0143 35.1426 31.0143 35.927C31.0143 39.6587 30.9905 43.3905 31.0143 47.1222C31.0143 48.1443 31.9655 49 32.9643 49C34.0107 49 34.9857 48.1681 34.9857 47.1222C34.9857 43.3905 34.9857 39.6587 34.9857 35.927C34.9857 35.5705 34.9857 35.2139 35.0095 34.8812C35.0095 34.4295 35.0095 34.0017 34.9857 33.5501C34.9382 33.1222 35.1046 32.9796 35.5565 32.9796C37.3163 32.9796 39.0523 32.9796 40.8121 32.9796C42.1201 32.9796 43 32.1477 43 30.983C43 29.8421 42.0963 29.034 40.8359 29.0102V28.9864Z" fill="white"/>
<path d="M68.0199 8.2334H67.1012C64.3452 8.2334 62.1211 10.4575 62.1211 13.2135V16.9366H73.0001V13.2135C73.0001 10.4575 70.7759 8.2334 68.0199 8.2334Z" fill="#318CFF"/>
<path d="M73.0001 16.9368H62.1211V19.9345H73.0001V16.9368Z" fill="#FDF5F4"/>
<path d="M67.1012 72.7337H68.0199C70.7759 72.7337 73.0001 62.0481 73.0001 62.0481H62.1211C62.1211 62.0481 64.3452 72.7337 67.1012 72.7337Z" fill="#C8E0FF"/>
<path d="M73.0001 19.9343H62.1211V59.0503H73.0001V19.9343Z" fill="#318CFF"/>
<path d="M73.0001 59.0503H62.1211V62.0481H73.0001V59.0503Z" fill="#C8E0FF"/>
</svg>
