
<svg width="36" height="36" viewBox="0 0 36 36" fill="none" xmlns="http://www.w3.org/2000/svg">
<path d="M10.9557 35.4141C9.63568 35.4141 8.78368 34.5938 8.78368 33.3164C8.78368 31.5234 8.78368 29.7188 8.78368 27.9258C8.78368 26.6602 9.62368 25.8398 10.9077 25.8398H14.5797L14.7597 26.4258V25.8398H15.9597V22.6289C13.4517 22.1602 11.3037 21 9.57568 19.1602C8.96368 18.5039 8.42368 17.7539 7.97968 16.9453L7.93168 16.8398H7.12768C6.79168 16.8398 6.45568 16.8398 6.13168 16.8047C3.63568 16.5586 1.84768 14.7539 1.67968 12.3281C1.59568 11.1328 1.60768 9.96094 1.67968 8.83594C1.87168 6.24609 3.88768 4.39453 6.58768 4.35938H6.63568C6.71968 3.44531 7.10368 2.60156 7.76368 1.93359C8.57968 1.08984 9.76768 0.597656 11.0037 0.597656C13.3677 0.621094 15.6837 0.632813 17.9877 0.632813C20.2917 0.632813 22.6197 0.632812 24.9237 0.597656C26.2077 0.597656 27.3957 1.07812 28.2117 1.93359C28.8597 2.60156 29.2437 3.44531 29.3277 4.34766C31.0557 4.37109 32.4237 5.05078 33.4197 6.375C33.9837 7.13672 34.2837 7.98047 34.3077 8.89453V9.03516C34.3437 10.1367 34.3797 11.2852 34.2837 12.4102C34.0797 14.8711 32.0877 16.7227 29.5317 16.8164C29.2317 16.8164 28.9437 16.8281 28.6437 16.8281H28.0197C27.9237 16.9453 27.8517 17.0977 27.7677 17.2617C27.6717 17.4375 27.5757 17.6133 27.4677 17.7773C25.6437 20.4141 23.1237 22.0312 19.9917 22.6055V25.8281H24.9957C26.3397 25.8281 27.1677 26.6484 27.1677 27.9727V33.2695C27.1677 34.5938 26.3397 35.4141 24.9957 35.4141H17.9517H10.9077H10.9557ZM6.63568 8.33203C5.97568 8.36719 5.74768 8.64844 5.74768 9.35156V9.72656C5.74768 10.4648 5.74768 11.1914 5.74768 11.9297C5.74768 12.5156 6.05968 12.832 6.67168 12.8555H6.73168C6.73168 12.7617 6.70768 12.668 6.69568 12.5625C6.65968 12.3164 6.63568 12.0703 6.63568 11.8242C6.63568 10.8047 6.63568 9.78516 6.63568 8.75391V8.32031V8.33203ZM29.3637 9.46875C29.3637 10.5703 29.3637 11.707 29.3157 12.8438C30.0117 12.8086 30.2517 12.5273 30.2637 11.8008V11.6016C30.2637 10.8047 30.2637 10.0195 30.2637 9.22266C30.2637 8.625 29.9757 8.34375 29.3637 8.32031C29.3637 8.70703 29.3637 9.08203 29.3637 9.46875Z" fill="#2E7DF2"/>
<path d="M11.0166 1.17188C11.0166 1.17188 11.0406 1.17188 11.0646 1.17188C13.3806 1.19531 15.6966 1.20703 18.0126 1.20703C20.3286 1.20703 22.6446 1.20703 24.9606 1.17188C24.9726 1.17188 24.9846 1.17188 25.0086 1.17188C27.1806 1.17188 28.9086 2.8125 28.7886 4.94531C28.9566 4.93359 29.1246 4.92188 29.2926 4.92188C30.7806 4.92188 32.0406 5.44922 32.9766 6.71484C33.4566 7.37109 33.7326 8.10938 33.7566 8.91797C33.7926 10.0664 33.8406 11.2266 33.7446 12.375C33.5646 14.543 31.8126 16.1602 29.5686 16.2422C29.2806 16.2422 28.9926 16.2539 28.7166 16.2539C28.4886 16.2539 28.2606 16.2539 28.0326 16.2539C27.9606 16.2539 27.8886 16.2539 27.8286 16.2539C27.4566 16.582 27.3126 17.0625 27.0366 17.4609C25.3086 19.957 22.9446 21.5156 19.8966 22.0547C19.7526 22.0781 19.6086 22.1133 19.4646 22.1367C19.4646 23.5664 19.4646 24.9961 19.4646 26.4258C21.3366 26.4258 23.1966 26.4258 25.0686 26.4258C26.0766 26.4258 26.6406 26.9883 26.6406 27.9844C26.6406 29.7539 26.6406 31.5234 26.6406 33.2812C26.6406 34.2891 26.0886 34.8398 25.0686 34.8398C22.7166 34.8398 20.3766 34.8398 18.0246 34.8398C15.6726 34.8398 13.3326 34.8398 10.9806 34.8398C9.99658 34.8398 9.40858 34.2773 9.40858 33.3281C9.40858 31.5352 9.40858 29.7422 9.40858 27.9375C9.40858 27 9.98458 26.4375 10.9446 26.4375C11.9886 26.4375 13.0326 26.4375 14.0766 26.4375C14.6406 26.4375 15.2046 26.4375 15.7686 26.4375C16.0446 26.4375 16.3206 26.4375 16.5966 26.4375C16.5966 25.0078 16.5966 23.5781 16.5966 22.1484C14.0166 21.7734 11.8206 20.6602 10.0566 18.7852C9.45658 18.1523 8.95258 17.4492 8.54458 16.6875C8.46058 16.5352 8.42458 16.3594 8.23258 16.2773C8.17258 16.2773 8.10058 16.2773 8.04058 16.2773C7.75258 16.2773 7.45258 16.2773 7.16458 16.2773C6.85258 16.2773 6.54058 16.2773 6.22858 16.2422C4.04458 16.0312 2.46058 14.4492 2.31658 12.3047C2.24458 11.168 2.23258 10.0312 2.31658 8.89453C2.48458 6.58594 4.26058 5.00391 6.63658 4.95703C6.67258 4.95703 6.70858 4.95703 6.73258 4.95703C6.91258 4.95703 7.08058 4.95703 7.26058 4.95703C7.14058 2.82422 8.86858 1.18359 11.0406 1.18359M29.1606 13.4297C29.1606 13.4297 29.1726 13.4297 29.1846 13.4297C30.3246 13.4297 30.8646 12.9023 30.8646 11.8008C30.8646 10.9453 30.8646 10.0781 30.8646 9.22266C30.8646 8.29688 30.3006 7.75781 29.3526 7.74609C29.1606 7.74609 28.9686 7.74609 28.7646 7.74609C28.7406 9.64453 28.8006 11.543 28.6806 13.4414C28.8366 13.4414 28.9926 13.4414 29.1486 13.4414M6.80458 13.4414C6.97258 13.4414 7.15258 13.4414 7.32058 13.4414C7.39258 12.9023 7.22458 12.375 7.23658 11.8359C7.23658 10.4766 7.23658 9.10547 7.23658 7.74609C7.09258 7.74609 6.93658 7.74609 6.79258 7.74609C5.67658 7.74609 5.14858 8.27344 5.14858 9.36328C5.14858 10.2188 5.14858 11.0859 5.14858 11.9414C5.14858 12.8555 5.72458 13.418 6.64858 13.4414C6.69658 13.4414 6.75658 13.4414 6.80458 13.4414ZM11.0166 0C9.61258 0 8.26858 0.550781 7.33258 1.51172C6.70858 2.15625 6.30058 2.92969 6.12058 3.78516C3.32458 4.01953 1.28458 6.02344 1.08058 8.78906C0.996578 9.9375 0.996578 11.1328 1.08058 12.3516C1.26058 15.0352 3.31258 17.1094 6.07258 17.3789C6.46858 17.4141 6.85258 17.4258 7.12858 17.4258H7.57258C8.01658 18.1992 8.54458 18.9141 9.14458 19.5586C10.8486 21.3633 12.9366 22.5586 15.3726 23.0977V24.2695V25.2422H14.9046H14.0646H10.9326C9.32458 25.2422 8.20858 26.3438 8.20858 27.9258C8.20858 29.7188 8.20858 31.5234 8.20858 33.3164C8.20858 34.9219 9.32458 36 10.9806 36H18.0246H25.0686C26.7486 36 27.8406 34.9336 27.8406 33.2695C27.8406 31.5 27.8406 29.7305 27.8406 27.9727C27.8406 26.3438 26.7246 25.2539 25.0686 25.2422H21.1566H20.6646V23.0859C23.7366 22.4062 26.2086 20.7305 28.0326 18.1055C28.1766 17.9062 28.2726 17.707 28.3686 17.5312C28.3926 17.4961 28.4046 17.4492 28.4286 17.4141H28.7166C29.0166 17.4141 29.3166 17.4141 29.6166 17.4023C32.4726 17.2969 34.7166 15.2227 34.9446 12.457C35.0406 11.2734 35.0046 10.1133 34.9686 8.97656V8.87109C34.9326 7.83984 34.5966 6.87891 33.9606 6.02344C32.9526 4.67578 31.5966 3.91406 29.9046 3.77344C29.7246 2.92969 29.3166 2.15625 28.6926 1.51172C27.7326 0.550781 26.3886 0 24.9846 0C22.6206 0.0234375 20.3046 0.0351562 18.0006 0.0351562C15.6966 0.0351562 13.3806 0.0234375 11.0646 0C11.0646 0 11.0166 0 11.0046 0H11.0166Z" fill="#171719"/>
<path d="M27.7903 16.2422C27.4183 16.5703 27.2743 17.0508 26.9983 17.4492C25.2703 19.9453 22.9063 21.5039 19.8583 22.043C19.7143 22.0664 19.5703 22.1016 19.4263 22.125C18.4783 22.2422 17.5183 22.2422 16.5703 22.125C13.9903 21.75 11.7943 20.6367 10.0303 18.7617C9.43033 18.1289 8.92633 17.4258 8.51833 16.6641C8.43433 16.5117 8.39833 16.3359 8.20633 16.2539C8.24233 15.9023 7.99033 15.6328 7.89433 15.3281C7.71433 14.6953 7.51033 14.0742 7.31833 13.4414C7.39033 12.9023 7.22233 12.375 7.23433 11.8359C7.23433 10.4766 7.23433 9.10547 7.23433 7.7461C7.23433 6.82031 7.23433 5.88281 7.23433 4.95703C7.11433 2.8125 8.86633 1.16016 11.0503 1.1836C15.6823 1.23047 20.3143 1.23047 24.9463 1.1836C27.1303 1.16016 28.8823 2.8125 28.7623 4.95703C28.7623 5.88281 28.7623 6.82031 28.7623 7.7461C28.7383 9.64453 28.7983 11.543 28.6783 13.4414C28.5463 13.5234 28.5583 13.6758 28.5343 13.793C28.3783 14.5313 28.1503 15.2461 27.8383 15.9258C27.7903 16.0313 27.7423 16.1367 27.7783 16.2539L27.7903 16.2422Z" fill="white"/>
<path d="M19.4271 26.4141C21.2991 26.4141 23.1591 26.4141 25.0311 26.4141C26.0391 26.4141 26.6031 26.9766 26.6031 27.9727C26.6031 29.7422 26.6031 31.5117 26.6031 33.2695C26.6031 34.2773 26.0511 34.8281 25.0311 34.8281C20.3391 34.8281 15.6471 34.8281 10.9431 34.8281C9.95909 34.8281 9.37109 34.2656 9.37109 33.3164C9.37109 31.5234 9.37109 29.7305 9.37109 27.9258C9.37109 26.9883 9.94709 26.4258 10.9071 26.4258C12.7911 26.4258 14.6751 26.4258 16.5591 26.4258H19.4151L19.4271 26.4141Z" fill="white"/>
<path d="M7.31929 13.4297C7.51129 14.0625 7.71529 14.6836 7.89529 15.3164C7.99129 15.6328 8.23129 15.8906 8.20729 16.2422C7.53529 16.2422 6.86329 16.2773 6.19129 16.207C4.00729 15.9961 2.42329 14.4141 2.27929 12.2695C2.20729 11.1328 2.19529 9.99609 2.27929 8.85938C2.44729 6.55078 4.22329 4.96875 6.59929 4.92188C6.80329 4.92188 7.01929 4.92188 7.22329 4.92188C7.22329 5.84766 7.22329 6.78516 7.22329 7.71094C7.07929 7.71094 6.92329 7.71094 6.77929 7.71094C5.66329 7.71094 5.13529 8.23828 5.13529 9.32813C5.13529 10.1836 5.13529 11.0508 5.13529 11.9062C5.13529 12.8203 5.71129 13.3828 6.63529 13.4062C6.86329 13.4062 7.07929 13.4062 7.30729 13.4062L7.31929 13.4297Z" fill="#2083FE"/>
<path d="M27.7917 16.2422C27.7557 16.125 27.7917 16.0195 27.8517 15.9141C28.1637 15.2226 28.3917 14.5195 28.5477 13.7812C28.5717 13.6641 28.5597 13.5117 28.6917 13.4297C28.8597 13.4297 29.0157 13.4297 29.1837 13.4297C30.3237 13.4297 30.8637 12.9023 30.8637 11.8008C30.8637 10.9453 30.8637 10.0781 30.8637 9.22265C30.8637 8.29686 30.2997 7.7578 29.3637 7.74608C29.1717 7.74608 28.9797 7.74608 28.7757 7.74608C28.7757 6.8203 28.7757 5.8828 28.7757 4.95702C30.4917 4.82812 31.9317 5.33202 32.9637 6.72655C33.4437 7.3828 33.7197 8.12108 33.7437 8.92968C33.7797 10.0781 33.8277 11.2383 33.7317 12.3867C33.5517 14.5547 31.7997 16.1719 29.5557 16.2539C28.9797 16.2773 28.3917 16.2539 27.8037 16.2539L27.7917 16.2422Z" fill="#2083FE"/>
<path d="M19.4283 26.4141H16.5723C16.5723 24.9844 16.5723 23.5547 16.5723 22.125C17.5203 22.2422 18.4803 22.2422 19.4283 22.125C19.4283 23.5547 19.4283 24.9844 19.4283 26.4141Z" fill="#2083FE"/>
</svg>
