<svg width="76" height="66" viewBox="0 0 76 66" fill="none" xmlns="http://www.w3.org/2000/svg">
<path d="M75.1729 18.8667C74.5595 13.4534 72.3995 8.78669 68.3462 5.05335C62.8529 -0.0133123 54.2395 -1.29331 47.5729 2.09335C43.5462 4.14669 40.6929 7.37335 38.4529 11.2134C38.3462 11.4 38.3195 11.6934 37.9995 11.7467C37.0929 10.0934 36.0262 8.52002 34.7995 7.08002C30.5062 2.12002 25.1995 -0.413312 18.5595 0.306688C11.8129 1.05335 6.90621 4.54669 3.57287 10.3867C1.8662 13.4 1.06621 16.68 0.852872 20.0934C0.719539 22.1467 0.826205 24.2 1.35954 26.2C1.43954 26.8134 1.59954 27.4267 1.7862 28.0134C3.06621 32.1734 5.33287 35.72 8.07954 39.0534C12.0795 43.9067 16.7995 48.0667 21.5462 52.1734C26.4529 56.4134 31.4129 60.6 36.3462 64.84C37.5729 65.9067 38.5862 65.88 39.8395 64.84C42.1329 62.8934 44.3462 60.8667 46.6662 58.9467C51.8395 54.6534 56.9862 50.3067 61.8395 45.6934C65.1995 42.4934 68.3729 39.16 70.9062 35.24C72.7462 32.3867 74.1595 29.4 74.8529 26.0667C75.1462 25.32 75.0395 24.4667 75.3595 23.72V19.2134C75.1995 19.1334 75.2262 18.9734 75.2262 18.84L75.1729 18.8667ZM40.8529 32.9467C42.7729 32.9467 44.6929 32.9467 46.5862 32.9467C48.0529 32.9467 48.9062 34.0134 48.9595 35.08C49.0129 36.36 47.9995 37.2667 46.5862 37.2934C44.7462 37.2934 42.9062 37.32 41.0662 37.2934C40.4262 37.2934 40.2129 37.4267 40.2129 38.12C40.2129 42.8134 40.2129 47.5334 40.2129 52.2267C40.2129 52.52 40.2129 52.8134 40.1329 53.08C39.8662 54.12 38.8529 54.84 37.8662 54.7334C36.7729 54.6 35.9462 53.6667 35.9462 52.44C35.9462 47.6934 35.9195 42.9467 35.9462 38.2C35.9462 37.4534 35.7595 37.2667 35.0395 37.2934C33.2262 37.3467 31.4129 37.2934 29.5995 37.2934C28.2129 37.2934 27.1995 36.36 27.2262 35.1067C27.2262 33.88 28.2395 32.9734 29.5995 32.9734C31.5195 32.9734 33.4395 32.9734 35.3329 32.9734C35.7862 32.9734 35.9729 32.8667 35.9462 32.36C35.9195 30.3334 35.9195 28.28 35.9195 26.2534C36.1862 24.4134 38.1062 23.6667 39.4662 24.7067C39.9462 25.08 40.1062 25.5867 40.3195 26.12C40.3195 28.2 40.3195 30.28 40.2929 32.36C40.2929 32.84 40.4529 32.9734 40.9062 32.9734L40.8529 32.9467Z" fill="#FB5C7C"/>
<path d="M40.2671 26.0933C40.2671 28.1733 40.2671 30.2533 40.2404 32.3333C40.2404 32.8133 40.4004 32.9466 40.8537 32.9466C42.7737 32.9466 44.6937 32.9466 46.5871 32.9466C48.0537 32.9466 48.9071 34.0133 48.9604 35.08C49.0137 36.36 48.0004 37.2666 46.5871 37.2933C44.7471 37.2933 42.9071 37.32 41.0671 37.2933C40.4271 37.2933 40.2137 37.4266 40.2137 38.12C40.2137 42.8133 40.2137 47.5333 40.2137 52.2266C40.2137 52.52 40.2137 52.8133 40.1337 53.08C39.8671 54.12 38.8537 54.84 37.8671 54.7333C36.7737 54.6 35.9471 53.6666 35.9471 52.44C35.9471 47.6933 35.9204 42.9466 35.9471 38.2C35.9471 37.4533 35.7604 37.2666 35.0404 37.2933C33.2271 37.3466 31.4137 37.2933 29.6004 37.2933C28.2137 37.2933 27.2004 36.36 27.2271 35.1066C27.2271 33.88 28.2404 32.9733 29.6004 32.9733C31.5204 32.9733 33.4404 32.9733 35.3337 32.9733C35.7871 32.9733 35.9737 32.8666 35.9471 32.36C35.9204 30.3333 35.9204 28.28 35.9204 26.2533C36.1871 24.4133 38.1071 23.6666 39.4671 24.7066C39.9471 25.08 40.1071 25.5866 40.3204 26.12L40.2671 26.0933Z" fill="#FEFEFE"/>
</svg>
