<svg width="24" height="24" viewBox="0 0 24 24" fill="none" xmlns="http://www.w3.org/2000/svg">
<path d="M5.76794 9.89307C5.52824 9.89307 5.31517 9.98752 5.15536 10.1629C4.98225 10.3383 4.90234 10.5542 4.90234 10.8106C4.90234 11.067 4.98225 11.2694 5.15536 11.4583C5.32848 11.6337 5.52824 11.7282 5.76794 11.7282C6.00765 11.7282 6.22072 11.6337 6.39384 11.4583C6.56696 11.2829 6.66017 11.067 6.66017 10.8106C6.66017 10.5542 6.56696 10.3383 6.39384 10.1629C6.22072 9.97403 6.02096 9.89307 5.76794 9.89307Z" fill="#37383C" fill-opacity="0.6"/>
<path d="M13.2386 9.87939C12.9989 9.87939 12.7859 9.97385 12.6261 10.1493C12.4529 10.3247 12.373 10.5406 12.373 10.7969C12.373 11.0533 12.4529 11.2557 12.6261 11.4446C12.7992 11.62 12.9989 11.7145 13.2386 11.7145C13.4783 11.7145 13.6914 11.62 13.8645 11.4446C14.0377 11.2692 14.1309 11.0533 14.1309 10.7969C14.1309 10.5406 14.0377 10.3382 13.8645 10.1493C13.7047 9.96035 13.4917 9.87939 13.2386 9.87939Z" fill="#37383C" fill-opacity="0.6"/>
<path d="M18.2328 9.89307C17.9931 9.89307 17.78 9.98752 17.6202 10.1629C17.4471 10.3383 17.3672 10.5542 17.3672 10.8106C17.3672 11.067 17.4471 11.2694 17.6202 11.4583C17.7933 11.6337 17.9931 11.7282 18.2328 11.7282C18.4725 11.7282 18.6856 11.6337 18.8587 11.4583C19.0318 11.2829 19.125 11.067 19.125 10.8106C19.125 10.5542 19.0318 10.3383 18.8587 10.1629C18.6856 9.97403 18.4725 9.89307 18.2328 9.89307Z" fill="#37383C" fill-opacity="0.6"/>
<path d="M20.4421 3.22754H3.55631C2.26457 3.22754 1.19922 4.307 1.19922 5.61584V15.2905C1.19922 16.5994 2.26457 17.6788 3.55631 17.6788H10.1881C10.1881 17.6788 11.4665 21.2275 11.9326 21.2275C12.3987 21.2275 13.7837 17.6788 13.7837 17.6788H20.4421C21.7339 17.6788 22.7992 16.5994 22.7992 15.2905V5.61584C22.7992 4.307 21.7339 3.22754 20.4421 3.22754ZM7.47148 12.1601C7.13855 12.5379 6.61919 12.6998 6.05988 12.6998C5.55384 12.6998 5.18097 12.5514 4.91463 12.3355H4.90131V12.6054H3.63621V7.00565H4.90131V9.15108H4.92795C5.27419 8.85423 5.72696 8.75977 6.25964 8.73279C6.71241 8.71929 7.19182 9.00265 7.48479 9.33998C7.76445 9.67731 7.97752 10.2036 7.97752 10.7838C7.97752 11.4179 7.81771 11.7823 7.47148 12.1601ZM10.2014 12.6593H8.9097C8.9097 12.6593 8.9097 9.71779 8.9097 9.19156C8.9097 8.39545 8.28381 8.28751 8.28381 8.28751V6.8977C8.28381 6.8977 10.0949 7.00565 10.2014 9.23204C10.2014 9.86622 10.2014 12.6593 10.2014 12.6593ZM15.2752 11.5934C15.1686 11.8497 15.0088 12.0656 14.7958 12.268C14.596 12.4569 14.3563 12.6054 14.09 12.7133C13.8236 12.8212 13.544 12.8752 13.251 12.8752C12.958 12.8752 12.6784 12.8212 12.4254 12.7133C12.159 12.6054 11.9193 12.4569 11.7196 12.268C11.5065 12.0656 11.3467 11.8362 11.2402 11.5934C11.1336 11.3505 11.0804 11.0806 11.0804 10.7973C11.0804 10.5139 11.1336 10.2575 11.2402 10.0012C11.3467 9.75827 11.5065 9.52889 11.7196 9.32649C11.9326 9.13758 12.159 8.98916 12.4254 8.88121C12.6917 8.77327 12.9714 8.71929 13.251 8.71929C13.544 8.71929 13.8236 8.77327 14.09 8.88121C14.3563 8.98916 14.596 9.13758 14.7958 9.32649C15.0088 9.52889 15.1553 9.74478 15.2752 10.0012C15.3817 10.2575 15.435 10.5139 15.435 10.7973C15.435 11.0806 15.3817 11.337 15.2752 11.5934ZM20.3622 12.1466C20.3622 13.1316 20.1758 13.7253 19.7497 14.1436C19.2303 14.6428 18.4979 14.6698 17.8853 14.5889V13.5769C18.4046 13.6308 19.1104 13.28 19.1104 12.6054V12.349H19.0971C18.8041 12.7538 18.3913 12.9022 17.8187 12.9022C17.2993 12.9022 16.8466 12.7133 16.5403 12.349C16.234 11.9847 16.0875 11.4989 16.0875 10.8917C16.0875 10.2036 16.2606 9.66382 16.5935 9.25902C16.9398 8.85423 17.4192 8.66532 17.9785 8.66532C18.4712 8.66532 18.7908 8.78676 19.0971 9.07012H19.1104V8.75977H20.3755V12.1466H20.3622Z" fill="#37383C" fill-opacity="0.6"/>
</svg>
