<svg width="24" height="24" viewBox="0 0 24 24" fill="none" xmlns="http://www.w3.org/2000/svg">
<mask id="mask0_2462_632" style="mask-type:alpha" maskUnits="userSpaceOnUse" x="0" y="0" width="24" height="24">
<rect width="24" height="24" fill="#D9D9D9"/>
</mask>
<g mask="url(#mask0_2462_632)">
<path d="M19.5425 21.9499L13.2618 15.3958C12.7618 15.8266 12.1868 16.1638 11.5368 16.4072C10.8868 16.6507 10.2144 16.7725 9.51955 16.7725C7.81038 16.7725 6.36388 16.155 5.18005 14.92C3.99621 13.6851 3.4043 12.176 3.4043 10.3929C3.4043 8.60993 3.99605 7.10037 5.17955 5.86419C6.36305 4.62819 7.80921 4.01019 9.51805 4.01019C11.2267 4.01019 12.6734 4.62784 13.858 5.86315C15.0425 7.09845 15.6348 8.60784 15.6348 10.3913C15.6348 11.1365 15.515 11.8483 15.2753 12.5265C15.0355 13.2048 14.7155 13.7947 14.3155 14.2963L20.5963 20.8501L19.5425 21.9499ZM9.51955 15.2075C10.808 15.2075 11.8994 14.7409 12.7935 13.8077C13.6879 12.8746 14.135 11.7358 14.135 10.3913C14.135 9.0468 13.6879 7.90802 12.7935 6.97497C11.8994 6.04176 10.808 5.57515 9.51955 5.57515C8.23105 5.57515 7.13971 6.04176 6.24555 6.97497C5.35121 7.90802 4.90405 9.0468 4.90405 10.3913C4.90405 11.7358 5.35121 12.8746 6.24555 13.8077C7.13971 14.7409 8.23105 15.2075 9.51955 15.2075Z" fill="#171719"/>
</g>
</svg>
