<svg width="48" height="48" viewBox="0 0 48 48" fill="none" xmlns="http://www.w3.org/2000/svg">
<rect width="48" height="48" rx="24" fill="#E7F4FF"/>
<mask id="mask0_2462_638" style="mask-type:alpha" maskUnits="userSpaceOnUse" x="12" y="12" width="24" height="24">
<rect x="12" y="12" width="24" height="24" fill="#D9D9D9"/>
</mask>
<g mask="url(#mask0_2462_638)">
<path d="M17.3077 33.5C16.8091 33.5 16.3831 33.3234 16.0298 32.9703C15.6766 32.6169 15.5 32.1909 15.5 31.6923V20.3078C15.5 19.8091 15.6766 19.3831 16.0298 19.0298C16.3831 18.6766 16.8091 18.5 17.3077 18.5H19.5C19.5 17.2513 19.9378 16.1892 20.8135 15.3135C21.6892 14.4378 22.7513 14 24 14C25.2487 14 26.3108 14.4378 27.1865 15.3135C28.0622 16.1892 28.5 17.2513 28.5 18.5H30.6923C31.1909 18.5 31.6169 18.6766 31.9703 19.0298C32.3234 19.3831 32.5 19.8091 32.5 20.3078V31.6923C32.5 32.1909 32.3234 32.6169 31.9703 32.9703C31.6169 33.3234 31.1909 33.5 30.6923 33.5H17.3077ZM17.3077 32H30.6923C30.7692 32 30.8398 31.9679 30.9038 31.9038C30.9679 31.8398 31 31.7693 31 31.6923V20.3078C31 20.2308 30.9679 20.1602 30.9038 20.0962C30.8398 20.0321 30.7692 20 30.6923 20H17.3077C17.2307 20 17.1603 20.0321 17.0963 20.0962C17.0321 20.1602 17 20.2308 17 20.3078V31.6923C17 31.7693 17.0321 31.8398 17.0963 31.9038C17.1603 31.9679 17.2307 32 17.3077 32ZM24 25.5C25.2487 25.5 26.3108 25.0622 27.1865 24.1865C28.0622 23.3108 28.5 22.2487 28.5 21H27C27 21.8333 26.7083 22.5417 26.125 23.125C25.5417 23.7083 24.8333 24 24 24C23.1667 24 22.4583 23.7083 21.875 23.125C21.2917 22.5417 21 21.8333 21 21H19.5C19.5 22.2487 19.9378 23.3108 20.8135 24.1865C21.6892 25.0622 22.7513 25.5 24 25.5ZM21 18.5H27C27 17.6667 26.7083 16.9583 26.125 16.375C25.5417 15.7917 24.8333 15.5 24 15.5C23.1667 15.5 22.4583 15.7917 21.875 16.375C21.2917 16.9583 21 17.6667 21 18.5Z" fill="#2083FE"/>
</g>
</svg>
