<svg width="54" height="22" viewBox="0 0 54 22" fill="none" xmlns="http://www.w3.org/2000/svg">
<path d="M0.672652 21V1.19889H8.4268C12.9323 1.19889 15.5138 3.97376 15.5138 7.8895C15.5138 11.8246 12.8936 14.5511 8.33978 14.5511H4.78177V21H0.672652ZM4.78177 11.2348H7.67265C10.1091 11.2348 11.2887 9.87155 11.2887 7.8895C11.2887 5.89779 10.1091 4.5732 7.66298 4.5732H4.78177V11.2348ZM17.3605 21V6.14917H21.4116V21H17.3605ZM17.1864 2.14641C17.1864 1.01519 18.1823 0.0870163 19.3909 0.0870163C20.5994 0.0870163 21.5953 1.01519 21.5953 2.14641C21.5953 3.28729 20.5994 4.2058 19.3909 4.2058C18.1823 4.2058 17.1864 3.28729 17.1864 2.14641ZM30.5817 21.2901C26.0182 21.2901 23.282 18.1478 23.282 13.6326C23.282 9.07873 26.0762 5.9558 30.5624 5.9558C34.4008 5.9558 36.9919 8.18923 37.1756 11.6022H33.3566C33.1245 10.1326 32.1577 9.1174 30.6204 9.1174C28.677 9.1174 27.4008 10.7417 27.4008 13.5746C27.4008 16.4365 28.6673 18.0704 30.6204 18.0704C32.0513 18.0704 33.1052 17.1906 33.3566 15.605H37.1756C36.9822 18.9793 34.5071 21.2901 30.5817 21.2901ZM39.0076 21V1.19889H43.0587V11.8246H43.2811L48.1057 6.14917H52.7562L47.2162 12.5787L53.0463 21H48.2991L44.19 14.9669L43.0587 16.2528V21H39.0076Z" fill="url(#paint0_linear_2622_1772)"/>
<defs>
<linearGradient id="paint0_linear_2622_1772" x1="0.158537" y1="-15.3704" x2="62.9392" y2="2.05763" gradientUnits="userSpaceOnUse">
<stop stop-color="#0C98E7"/>
<stop offset="0.535" stop-color="#B956EA"/>
<stop offset="1" stop-color="#F03964"/>
</linearGradient>
</defs>
</svg>
