
<svg width="48" height="48" viewBox="0 0 48 48" fill="none" xmlns="http://www.w3.org/2000/svg">
<rect width="48" height="48" rx="24" fill="url(#paint0_linear_2603_2335)"/>
<mask id="mask0_2603_2335" style="mask-type:alpha" maskUnits="userSpaceOnUse" x="12" y="5" width="24" height="25">
<rect x="12" y="5.99976" width="24" height="24" fill="white"/>
</mask>
<g mask="url(#mask0_2603_2335)">
<path d="M24 17.692C23.0375 17.692 22.2136 17.3493 21.5283 16.664C20.8428 15.9785 20.5 15.1545 20.5 14.192C20.5 13.2295 20.8428 12.4056 21.5283 11.7203C22.2136 11.0348 23.0375 10.692 24 10.692C24.9625 10.692 25.7864 11.0348 26.4718 11.7203C27.1573 12.4056 27.5 13.2295 27.5 14.192C27.5 15.1545 27.1573 15.9785 26.4718 16.664C25.7864 17.3493 24.9625 17.692 24 17.692ZM16.5 25.3075V23.0843C16.5 22.5946 16.633 22.1411 16.899 21.7238C17.165 21.3064 17.5205 20.9856 17.9655 20.7613C18.9538 20.2768 19.9509 19.9134 20.9567 19.671C21.9626 19.4287 22.977 19.3075 24 19.3075C25.023 19.3075 26.0374 19.4287 27.0433 19.671C28.0491 19.9134 29.0462 20.2768 30.0345 20.7613C30.4795 20.9856 30.835 21.3064 31.101 21.7238C31.367 22.1411 31.5 22.5946 31.5 23.0843V25.3075H16.5ZM18 23.8075H30V23.0843C30 22.8818 29.9413 22.6943 29.824 22.5218C29.7067 22.3494 29.5474 22.2088 29.3462 22.0998C28.4846 21.6754 27.6061 21.3539 26.7107 21.1353C25.8152 20.9168 24.9117 20.8075 24 20.8075C23.0883 20.8075 22.1848 20.9168 21.2893 21.1353C20.3939 21.3539 19.5154 21.6754 18.6537 22.0998C18.4526 22.2088 18.2933 22.3494 18.176 22.5218C18.0587 22.6943 18 22.8818 18 23.0843V23.8075ZM24 16.192C24.55 16.192 25.0208 15.9962 25.4125 15.6045C25.8042 15.2128 26 14.742 26 14.192C26 13.642 25.8042 13.1712 25.4125 12.7795C25.0208 12.3879 24.55 12.192 24 12.192C23.45 12.192 22.9792 12.3879 22.5875 12.7795C22.1958 13.1712 22 13.642 22 14.192C22 14.742 22.1958 15.2128 22.5875 15.6045C22.9792 15.9962 23.45 16.192 24 16.192Z" fill="white"/>
</g>
<path d="M16.7182 28.9279H18.0269L20.2714 34.4079H20.3543L22.5953 28.9279H23.904V35.9998H22.8785V30.8962H22.8128L20.7341 35.9894H19.8847L17.8059 30.8858H17.7472V35.9998H16.7182V28.9279ZM25.1067 28.9279H26.3291L28.1695 32.1358H28.2455L30.086 28.9279H31.3084L28.7462 33.227V35.9998H27.6689V33.227L25.1067 28.9279Z" fill="white"/>
<defs>
<linearGradient id="paint0_linear_2603_2335" x1="10.5" y1="4" x2="39.5" y2="42.5" gradientUnits="userSpaceOnUse">
<stop stop-color="#7BB5FF"/>
<stop offset="0.435656" stop-color="#2083FE"/>
<stop offset="1" stop-color="#882BFF"/>
</linearGradient>
</defs>
</svg>
